<svg version="1.1" id="Layer_1" xmlns="http://www.w3.org/2000/svg" xmlns:xlink="http://www.w3.org/1999/xlink" x="0px" y="0px"
	 width="100%" viewBox="0 0 512 512" enable-background="new 0 0 512 512" xml:space="preserve">
<path fill="#000000" opacity="1.000000" stroke="none" 
	d="
M336.000000,513.000000 
	C224.027206,513.000000 112.554405,513.000000 1.040803,513.000000 
	C1.040803,342.402191 1.040803,171.804352 1.040803,1.103257 
	C171.556137,1.103257 342.112366,1.103257 512.834290,1.103257 
	C512.834290,171.666534 512.834290,342.333252 512.834290,513.000000 
	C454.137665,513.000000 395.318817,513.000000 336.000000,513.000000 
M169.039215,109.115639 
	C168.091583,107.768135 167.143936,106.420631 166.196289,105.073135 
	C165.136459,106.426514 163.789948,107.652397 163.112427,109.175812 
	C162.618866,110.285545 163.005112,111.787865 163.004089,113.115158 
	C162.987640,134.683929 162.971970,156.252716 162.241943,177.988815 
	C161.661758,178.272278 161.061478,178.521088 160.504272,178.844177 
	C133.932465,194.252579 107.334793,209.616730 80.807106,225.100739 
	C65.108620,234.263840 49.521378,243.617508 33.200859,253.421310 
	C33.192451,261.538818 33.184044,269.656311 33.064640,278.738983 
	C33.045925,283.730621 32.846062,288.732147 33.117611,293.707947 
	C33.200321,295.223511 34.218994,297.173126 35.437771,298.048431 
	C38.779224,300.448242 42.426964,302.431061 46.002880,304.493256 
	C62.467045,313.988098 78.955833,323.440247 95.420967,332.933441 
	C113.898537,343.587006 132.356491,354.274567 150.829849,364.935455 
	C169.436264,375.673187 188.018997,386.452545 206.677689,397.098694 
	C214.384415,401.496002 222.262070,405.593781 230.777756,409.900482 
	C232.118759,409.283783 233.516876,408.766693 234.792175,408.035431 
	C254.053238,396.990601 273.344543,385.997314 292.535583,374.831848 
	C318.545013,359.699432 344.446716,344.381897 370.448547,329.236298 
	C387.505310,319.301056 404.689667,309.585022 421.757812,299.669128 
	C439.674286,289.260468 457.452911,278.612305 475.448669,268.343872 
	C479.504974,266.029358 481.609863,263.527039 481.084717,258.681274 
	C480.620453,254.397247 480.884338,250.034317 480.875000,244.806885 
	C480.916992,241.665024 481.092804,238.517899 480.969879,235.382507 
	C480.780243,230.544434 480.386047,225.714401 479.731018,220.272141 
	C477.757568,219.171356 475.768066,218.098312 473.813232,216.965393 
	C457.649506,207.597702 441.509918,198.188248 425.327972,188.852142 
	C409.146851,179.516479 392.912292,170.273499 376.725220,160.948105 
	C360.680695,151.704803 344.666321,142.409210 328.638550,133.136856 
	C314.719299,125.084312 300.765747,117.089989 286.913666,108.923553 
	C284.579407,107.547386 282.936218,107.412498 280.600220,108.981865 
	C276.280609,111.883904 271.652985,114.326408 267.162811,116.975853 
	C253.057663,125.298637 238.956741,133.628662 224.248566,141.671204 
	C212.460541,134.777740 200.697205,127.841591 188.874741,121.007721 
	C182.336060,117.228088 175.698364,113.619743 169.039215,109.115639 
z"/>
<path fill="#4BE4A4" opacity="1.000000" stroke="none" 
	d="
M33.884117,252.885468 
	C49.521378,243.617508 65.108620,234.263840 80.807106,225.100739 
	C107.334793,209.616730 133.932465,194.252579 160.504272,178.844177 
	C161.061478,178.521088 161.661758,178.272278 162.882980,178.219818 
	C163.621536,182.271744 163.719055,186.092651 163.516724,190.070282 
	C127.209030,211.163330 91.201202,232.099686 54.703892,253.320648 
	C56.612976,254.509476 57.715836,255.241684 58.860035,255.902267 
	C114.360664,287.944427 169.884949,319.945801 225.320694,352.099792 
	C228.788361,354.111115 231.265411,354.261505 234.772476,352.171478 
	C252.215515,341.776489 269.863464,331.726044 287.394104,321.477020 
	C304.622437,311.404785 321.796570,301.239838 339.298767,291.029114 
	C340.448212,290.385712 341.293335,289.828796 342.487244,289.192322 
	C381.512268,266.700867 420.188477,244.288971 459.343262,221.599777 
	C457.574005,220.429535 456.514984,219.646103 455.381653,218.991379 
	C399.303711,186.596008 343.206818,154.233383 287.174988,121.758476 
	C284.530609,120.225853 282.720154,120.717194 280.386139,122.088295 
	C265.457062,130.858246 250.462387,139.516449 235.161743,148.139511 
	C231.507523,146.030365 228.180847,143.993118 224.854172,141.955872 
	C238.956741,133.628662 253.057663,125.298637 267.162811,116.975853 
	C271.652985,114.326408 276.280609,111.883904 280.600220,108.981865 
	C282.936218,107.412498 284.579407,107.547386 286.913666,108.923553 
	C300.765747,117.089989 314.719299,125.084312 328.638550,133.136856 
	C344.666321,142.409210 360.680695,151.704803 376.725220,160.948105 
	C392.912292,170.273499 409.146851,179.516479 425.327972,188.852142 
	C441.509918,198.188248 457.649506,207.597702 473.813232,216.965393 
	C475.768066,218.098312 477.757568,219.171356 479.720886,220.871262 
	C479.222229,221.916916 478.795227,222.468842 478.236420,222.794830 
	C449.775238,239.398849 421.317780,256.009247 392.827972,272.563995 
	C356.424713,293.717133 319.996033,314.826569 283.575043,335.949188 
	C265.725128,346.301453 247.867767,356.640961 229.727753,366.801239 
	C174.224152,334.704102 118.991356,302.818268 63.802975,270.855774 
	C53.737114,265.026093 43.852432,258.883575 33.884117,252.885468 
z"/>
<path fill="#39C888" opacity="1.000000" stroke="none" 
	d="
M230.013779,366.986237 
	C247.867767,356.640961 265.725128,346.301453 283.575043,335.949188 
	C319.996033,314.826569 356.424713,293.717133 392.827972,272.563995 
	C421.317780,256.009247 449.775238,239.398849 478.236420,222.794830 
	C478.795227,222.468842 479.222229,221.916916 479.894653,221.175659 
	C480.386047,225.714401 480.780243,230.544434 480.969879,235.382507 
	C481.092804,238.517899 480.916992,241.665024 480.548553,245.436081 
	C405.099060,289.733551 329.984924,333.417175 254.840164,377.048065 
	C246.665924,381.794250 238.314987,386.236115 230.040039,390.363037 
	C230.027313,382.266663 230.020554,374.626465 230.013779,366.986237 
z"/>
<path fill="#805059" opacity="1.000000" stroke="none" 
	d="
M230.046005,390.819153 
	C238.314987,386.236115 246.665924,381.794250 254.840164,377.048065 
	C329.984924,333.417175 405.099060,289.733551 480.524414,245.885757 
	C480.884338,250.034317 480.620453,254.397247 481.084717,258.681274 
	C481.609863,263.527039 479.504974,266.029358 475.448669,268.343872 
	C457.452911,278.612305 439.674286,289.260468 421.757812,299.669128 
	C404.689667,309.585022 387.505310,319.301056 370.448547,329.236298 
	C344.446716,344.381897 318.545013,359.699432 292.535583,374.831848 
	C273.344543,385.997314 254.053238,396.990601 234.792175,408.035431 
	C233.516876,408.766693 232.118759,409.283783 230.408936,409.408020 
	C230.043503,403.040680 230.046906,397.165802 230.049103,391.172974 
	C230.047913,391.055054 230.046005,390.819153 230.046005,390.819153 
z"/>
<path fill="#28AF6E" opacity="1.000000" stroke="none" 
	d="
M229.727753,366.801239 
	C230.020554,374.626465 230.027313,382.266663 230.040039,390.363037 
	C230.046005,390.819153 230.047913,391.055054 229.730789,391.003784 
	C214.430344,382.307129 199.448669,373.658905 184.463409,365.016907 
	C134.034821,335.934723 83.604996,306.854675 33.175636,277.773834 
	C33.184044,269.656311 33.192451,261.538818 33.542488,253.153397 
	C43.852432,258.883575 53.737114,265.026093 63.802975,270.855774 
	C118.991356,302.818268 174.224152,334.704102 229.727753,366.801239 
z"/>
<path fill="#613A41" opacity="1.000000" stroke="none" 
	d="
M33.120136,278.256409 
	C83.604996,306.854675 134.034821,335.934723 184.463409,365.016907 
	C199.448669,373.658905 214.430344,382.307129 229.731995,391.121704 
	C230.046906,397.165802 230.043503,403.040680 230.051041,409.371643 
	C222.262070,405.593781 214.384415,401.496002 206.677689,397.098694 
	C188.018997,386.452545 169.436264,375.673187 150.829849,364.935455 
	C132.356491,354.274567 113.898537,343.587006 95.420967,332.933441 
	C78.955833,323.440247 62.467045,313.988098 46.002880,304.493256 
	C42.426964,302.431061 38.779224,300.448242 35.437771,298.048431 
	C34.218994,297.173126 33.200321,295.223511 33.117611,293.707947 
	C32.846062,288.732147 33.045925,283.730621 33.120136,278.256409 
z"/>
<path fill="#525D63" opacity="1.000000" stroke="none" 
	d="
M224.551361,141.813538 
	C228.180847,143.993118 231.507523,146.030365 235.359314,148.409256 
	C236.882904,149.232178 237.881363,149.713455 239.109207,150.442841 
	C248.923523,156.167419 258.508453,161.643875 268.245728,167.382812 
	C268.953033,167.885529 269.507965,168.125748 270.285217,168.593552 
	C287.643677,178.644913 304.779846,188.468704 322.067505,198.506363 
	C322.995544,199.099472 323.772156,199.478699 324.831268,200.104156 
	C329.069031,202.561935 333.024292,204.773514 336.982941,207.418762 
	C336.980652,209.587845 336.974915,211.323273 336.670471,212.884003 
	C330.281677,209.195129 324.191681,205.680954 317.883179,202.025940 
	C317.497894,201.837982 317.331146,201.790894 316.942505,201.488220 
	C313.845459,199.567551 310.980652,197.884232 308.093353,196.240402 
	C293.816345,188.112091 279.533417,179.994247 265.081299,171.604553 
	C263.958069,170.893311 263.006104,170.450226 261.858459,169.723801 
	C252.345245,164.230743 243.027710,159.021011 233.551941,153.507172 
	C232.596756,152.747314 231.799805,152.291580 230.797668,151.568268 
	C226.739609,149.212494 222.886719,147.124283 218.786118,144.796204 
	C202.060120,135.048523 185.581863,125.540741 168.796967,115.855347 
	C166.265945,113.503098 163.891602,111.312408 169.105301,109.934189 
	C175.698364,113.619743 182.336060,117.228088 188.874741,121.007721 
	C200.697205,127.841591 212.460541,134.777740 224.551361,141.813538 
z"/>
<path fill="#3D4549" opacity="1.000000" stroke="none" 
	d="
M169.072266,109.524910 
	C163.891602,111.312408 166.265945,113.503098 168.737946,116.318649 
	C169.019592,135.985306 169.053619,155.011047 169.001831,174.470276 
	C168.894165,177.275726 168.872330,179.647720 168.522125,182.092026 
	C163.482178,184.626282 169.012955,187.404465 167.887680,190.207489 
	C167.822906,190.435852 167.792160,190.909622 167.441986,190.913971 
	C166.000076,190.583389 164.908325,190.248489 163.816589,189.913574 
	C163.719055,186.092651 163.621536,182.271744 163.240082,178.136154 
	C162.971970,156.252716 162.987640,134.683929 163.004089,113.115158 
	C163.005112,111.787865 162.618866,110.285545 163.112427,109.175812 
	C163.789948,107.652397 165.136459,106.426514 166.196289,105.073128 
	C167.143936,106.420631 168.091583,107.768135 169.072266,109.524910 
z"/>
<path fill="#EEFCF6" opacity="1.000000" stroke="none" 
	d="
M163.516724,190.070282 
	C164.908325,190.248489 166.000076,190.583389 167.290863,191.208725 
	C132.306229,212.010071 97.122574,232.521011 61.275223,253.418854 
	C70.938499,259.000854 79.799751,264.255035 88.843063,269.174500 
	C89.992371,269.799713 92.321053,269.078857 93.717361,268.294495 
	C102.715279,263.240021 111.615265,258.010529 120.529808,252.808365 
	C147.123749,237.289246 173.709534,221.756165 200.580643,206.319641 
	C201.504059,206.858353 202.145325,207.305954 202.460571,207.871597 
	C175.883850,223.262772 149.633163,238.535889 122.728539,254.189468 
	C139.902771,264.105957 156.253876,273.634277 172.754288,282.896606 
	C173.973663,283.581085 176.529221,282.805176 178.022995,281.944000 
	C203.526764,267.240631 228.960953,252.416580 254.709381,237.716736 
	C255.504700,238.159485 256.001099,238.504639 256.197540,239.063873 
	C229.722336,254.557541 203.547089,269.837097 176.836533,285.429169 
	C193.750061,295.198334 209.852173,304.578033 226.083817,313.727905 
	C227.421387,314.481934 230.000763,314.304016 231.393234,313.501221 
	C257.057098,298.704865 282.627991,283.747162 308.526367,268.890564 
	C309.327606,269.310577 309.820923,269.663574 310.083923,270.282593 
	C273.835297,291.535736 237.817017,312.522797 200.959717,333.998749 
	C209.464493,338.946259 217.208023,343.098480 224.554535,347.862885 
	C228.654022,350.521545 231.692123,350.134979 235.780151,347.737732 
	C269.377716,328.035858 303.121063,308.582581 336.937561,289.340942 
	C337.701447,290.123840 338.347961,290.619720 338.994476,291.115601 
	C321.796570,301.239838 304.622437,311.404785 287.394104,321.477020 
	C269.863464,331.726044 252.215515,341.776489 234.772476,352.171478 
	C231.265411,354.261505 228.788361,354.111115 225.320694,352.099792 
	C169.884949,319.945801 114.360664,287.944427 58.860035,255.902267 
	C57.715836,255.241684 56.612976,254.509476 54.703892,253.320648 
	C91.201202,232.099686 127.209030,211.163330 163.516724,190.070282 
M138.537979,265.941040 
	C133.494415,263.025146 128.518219,259.980682 123.362389,257.279022 
	C121.983604,256.556549 119.668259,256.170624 118.442986,256.839478 
	C109.984070,261.457123 101.699951,266.395050 92.922997,271.483124 
	C93.689865,272.014038 94.083092,272.329620 94.514610,272.578888 
	C128.383316,292.143768 162.246872,311.717651 196.162766,331.200378 
	C197.267624,331.835083 199.241608,332.136383 200.247543,331.578369 
	C208.806702,326.830414 217.235291,321.847137 226.272141,316.604156 
	C196.806610,299.575958 167.997314,282.927002 138.537979,265.941040 
z"/>
<path fill="#EEFCF7" opacity="1.000000" stroke="none" 
	d="
M270.062897,168.365967 
	C269.507965,168.125748 268.953033,167.885529 268.552185,167.228149 
	C283.341644,158.238571 297.977020,149.666138 313.222198,140.736526 
	C303.691132,135.227615 295.133270,130.135117 286.390533,125.382683 
	C285.051941,124.655052 282.523010,124.904518 281.114868,125.705109 
	C266.968231,133.748199 252.940781,142.000977 238.879807,150.194733 
	C237.881363,149.713455 236.882904,149.232178 235.686859,148.481140 
	C250.462387,139.516449 265.457062,130.858246 280.386139,122.088295 
	C282.720154,120.717194 284.530609,120.225853 287.174988,121.758476 
	C343.206818,154.233383 399.303711,186.596008 455.381653,218.991379 
	C456.514984,219.646103 457.574005,220.429535 459.343262,221.599777 
	C420.188477,244.288971 381.512268,266.700867 342.420258,288.818756 
	C342.069244,287.533447 342.134003,286.542084 342.536224,285.408966 
	C379.285736,264.153412 415.697784,243.039658 452.933838,221.448120 
	C444.254364,216.409653 436.254181,212.021622 428.541870,207.175446 
	C424.932953,204.907700 422.230438,205.192642 418.635590,207.302078 
	C393.222900,222.214035 367.671783,236.890167 342.108948,251.207977 
	C342.103088,250.195770 342.153198,249.617111 342.527069,248.945068 
	C358.835815,239.560333 374.820770,230.269012 391.449493,220.603516 
	C374.335907,210.726776 358.107269,201.318680 341.800903,192.047241 
	C340.746368,191.447678 338.811737,191.384460 337.767365,191.953827 
	C333.263367,194.409134 328.938690,197.193405 324.548737,199.857925 
	C323.772156,199.478699 322.995544,199.099472 322.405334,198.367630 
	C327.302704,195.271408 332.013733,192.527802 337.212280,189.500275 
	C335.166016,188.224274 333.663147,187.226868 332.104950,186.325119 
	C320.747162,179.752304 308.883881,173.906784 298.164703,166.421707 
	C289.107635,160.097244 281.421417,159.468399 273.125397,166.719864 
	C272.274811,167.463348 271.091705,167.826401 270.062897,168.365967 
M339.540619,155.937134 
	C335.365143,153.517044 330.808472,151.570358 327.093231,148.578705 
	C319.268524,142.277939 312.148621,142.155502 304.198883,148.527435 
	C299.533264,152.267059 293.845703,154.731705 288.331726,157.936111 
	C289.277893,158.783035 289.495331,159.055618 289.776398,159.218170 
	C323.627472,178.794464 357.477417,198.372757 391.367249,217.881729 
	C392.377045,218.463028 394.132294,218.893036 394.992950,218.412949 
	C403.615234,213.603409 412.122711,208.588089 421.404877,203.199829 
	C393.732239,187.210922 366.961182,171.742950 339.540619,155.937134 
z"/>
<path fill="#3E454A" opacity="1.000000" stroke="none" 
	d="
M342.198761,285.550751 
	C342.134003,286.542084 342.069244,287.533447 342.071472,288.898315 
	C341.293335,289.828796 340.448212,290.385712 339.298767,291.029114 
	C338.347961,290.619720 337.701447,290.123840 336.997620,288.948944 
	C336.931580,287.209564 336.922852,286.149170 336.932617,284.648132 
	C336.952667,282.442993 336.954224,280.678528 336.969299,278.451111 
	C336.936432,270.327057 336.890106,262.665955 336.914642,254.667084 
	C336.943542,253.872513 336.901550,253.415680 336.923218,252.496643 
	C336.980957,239.042511 336.975098,226.050598 336.969208,213.058685 
	C336.974915,211.323273 336.980652,209.587845 337.072571,207.065155 
	C338.277954,205.640350 339.397186,205.002838 340.516357,204.365326 
	C341.027008,205.836365 341.963654,207.302170 341.981812,208.779251 
	C342.146881,222.197861 342.151642,235.618454 342.203308,249.038467 
	C342.153198,249.617111 342.103088,250.195770 342.050903,251.611725 
	C342.098785,263.482941 342.148773,274.516846 342.198761,285.550751 
z"/>
<path fill="#B2EDDF" opacity="1.000000" stroke="none" 
	d="
M265.252563,171.872696 
	C279.533417,179.994247 293.816345,188.112091 308.093353,196.240402 
	C310.980652,197.884232 313.845459,199.567551 316.590302,201.602142 
	C309.213104,206.033478 301.908691,209.996567 294.732513,214.179642 
	C283.108521,220.955414 271.568634,227.875549 259.679169,234.638794 
	C242.131012,224.499985 224.896942,214.457092 208.023178,204.278229 
	C216.193176,199.692535 223.995850,195.230453 231.814240,190.796036 
	C242.954315,184.477631 254.105896,178.179489 265.252563,171.872696 
z"/>
<path fill="#B2EDDF" opacity="1.000000" stroke="none" 
	d="
M336.670471,212.884003 
	C336.975098,226.050598 336.980957,239.042511 336.577393,252.560730 
	C328.787872,257.361908 321.407837,261.636780 313.690186,265.841522 
	C309.336670,263.457764 305.301941,261.176056 301.308289,258.824646 
	C288.491516,251.278320 275.689941,243.706238 263.061218,235.841660 
	C274.897339,228.650528 286.603302,221.842285 298.193420,214.842270 
	C304.925629,210.776245 311.471802,206.402222 318.101654,202.166779 
	C324.191681,205.680954 330.281677,209.195129 336.670471,212.884003 
z"/>
<path fill="#B2EDDF" opacity="1.000000" stroke="none" 
	d="
M233.710175,153.811295 
	C243.027710,159.021011 252.345245,164.230743 261.633423,169.978455 
	C242.984329,181.378220 224.364563,192.239975 205.403625,203.049438 
	C195.563965,197.451355 186.065506,191.905594 176.893219,186.162964 
	C187.098480,180.229416 196.941589,174.429626 206.867294,168.774811 
	C215.767700,163.704102 224.758987,158.792877 233.710175,153.811295 
z"/>
<path fill="#4BE4A4" opacity="1.000000" stroke="none" 
	d="
M342.527069,248.945068 
	C342.151642,235.618454 342.146881,222.197861 341.981812,208.779251 
	C341.963654,207.302170 341.027008,205.836365 340.516357,204.365326 
	C339.397186,205.002838 338.277954,205.640350 337.069153,206.631485 
	C333.024292,204.773514 329.069031,202.561935 324.831268,200.104156 
	C328.938690,197.193405 333.263367,194.409134 337.767365,191.953827 
	C338.811737,191.384460 340.746368,191.447678 341.800903,192.047241 
	C358.107269,201.318680 374.335907,210.726776 391.449493,220.603516 
	C374.820770,230.269012 358.835815,239.560333 342.527069,248.945068 
z"/>
<path fill="#4BE4A4" opacity="1.000000" stroke="none" 
	d="
M239.109207,150.442841 
	C252.940781,142.000977 266.968231,133.748199 281.114868,125.705109 
	C282.523010,124.904518 285.051941,124.655052 286.390533,125.382683 
	C295.133270,130.135117 303.691132,135.227615 313.222198,140.736526 
	C297.977020,149.666138 283.341644,158.238571 268.399811,166.965668 
	C258.508453,161.643875 248.923523,156.167419 239.109207,150.442841 
z"/>
<path fill="#EAF2FE" opacity="1.000000" stroke="none" 
	d="
M169.087662,174.036789 
	C169.053619,155.011047 169.019592,135.985306 169.044586,116.496262 
	C185.581863,125.540741 202.060120,135.048523 218.560333,145.046539 
	C209.748123,150.779358 200.962189,156.105530 192.065079,161.238998 
	C184.472275,165.619888 176.751709,169.779373 169.087662,174.036789 
z"/>
<path fill="#4BE3A3" opacity="1.000000" stroke="none" 
	d="
M270.285217,168.593552 
	C271.091705,167.826401 272.274811,167.463348 273.125397,166.719864 
	C281.421417,159.468399 289.107635,160.097244 298.164703,166.421707 
	C308.883881,173.906784 320.747162,179.752304 332.104950,186.325119 
	C333.663147,187.226868 335.166016,188.224274 337.212280,189.500275 
	C332.013733,192.527802 327.302704,195.271408 322.253845,198.153748 
	C304.779846,188.468704 287.643677,178.644913 270.285217,168.593552 
z"/>
<path fill="#B3EEDF" opacity="1.000000" stroke="none" 
	d="
M169.001831,174.470276 
	C176.751709,169.779373 184.472275,165.619888 192.065079,161.238998 
	C200.962189,156.105530 209.748123,150.779358 218.808075,145.286438 
	C222.886719,147.124283 226.739609,149.212494 230.435944,151.630920 
	C229.049271,152.418747 227.724060,152.711899 226.603683,153.359421 
	C215.723022,159.648178 204.833267,165.923416 194.036346,172.354019 
	C187.243362,176.399918 180.604233,180.704071 173.584793,184.835266 
	C171.799164,183.858673 170.324829,182.939194 168.850494,182.019699 
	C168.872330,179.647720 168.894165,177.275726 169.001831,174.470276 
z"/>
<path fill="#EDF6FC" opacity="1.000000" stroke="none" 
	d="
M173.896088,184.892365 
	C180.604233,180.704071 187.243362,176.399918 194.036346,172.354019 
	C204.833267,165.923416 215.723022,159.648178 226.603683,153.359421 
	C227.724060,152.711899 229.049271,152.418747 230.641144,151.898499 
	C231.799805,152.291580 232.596756,152.747314 233.551941,153.507172 
	C224.758987,158.792877 215.767700,163.704102 206.867294,168.774811 
	C196.941589,174.429626 187.098480,180.229416 176.601318,186.071350 
	C175.287521,185.748520 174.591797,185.320435 173.896088,184.892365 
z"/>
<path fill="#EAF6FB" opacity="1.000000" stroke="none" 
	d="
M205.744797,203.101746 
	C224.364563,192.239975 242.984329,181.378220 261.829102,170.261810 
	C263.006104,170.450226 263.958069,170.893311 265.081299,171.604553 
	C254.105896,178.179489 242.954315,184.477631 231.814240,190.796036 
	C223.995850,195.230453 216.193176,199.692535 207.736572,204.175293 
	C206.641388,203.839447 206.193085,203.470596 205.744797,203.101746 
z"/>
<path fill="#EAF6FB" opacity="1.000000" stroke="none" 
	d="
M317.883179,202.025940 
	C311.471802,206.402222 304.925629,210.776245 298.193420,214.842270 
	C286.603302,221.842285 274.897339,228.650528 262.737976,235.796951 
	C261.488373,235.614685 260.740814,235.174698 259.993256,234.734726 
	C271.568634,227.875549 283.108521,220.955414 294.732513,214.179642 
	C301.908691,209.996567 309.213104,206.033478 316.812164,201.857727 
	C317.331146,201.790894 317.497894,201.837982 317.883179,202.025940 
z"/>
<path fill="#4BE4A4" opacity="1.000000" stroke="none" 
	d="
M200.298508,206.228546 
	C173.709534,221.756165 147.123749,237.289246 120.529808,252.808365 
	C111.615265,258.010529 102.715279,263.240021 93.717361,268.294495 
	C92.321053,269.078857 89.992371,269.799713 88.843063,269.174500 
	C79.799751,264.255035 70.938499,259.000854 61.275223,253.418854 
	C97.122574,232.521011 132.306229,212.010071 167.641022,191.204376 
	C167.792160,190.909622 167.822906,190.435852 168.302979,190.162170 
	C170.528732,190.202728 172.521133,190.079773 173.979706,190.902832 
	C182.820297,195.891510 191.539047,201.096085 200.298508,206.228546 
z"/>
<path fill="#525D63" opacity="1.000000" stroke="none" 
	d="
M200.580643,206.319641 
	C191.539047,201.096085 182.820297,195.891510 173.979706,190.902832 
	C172.521133,190.079773 170.528732,190.202728 168.367737,189.933807 
	C169.012955,187.404465 163.482178,184.626282 168.522125,182.092026 
	C170.324829,182.939194 171.799164,183.858673 173.584793,184.835266 
	C174.591797,185.320435 175.287521,185.748520 176.275131,186.268219 
	C186.065506,191.905594 195.563965,197.451355 205.403625,203.049423 
	C206.193085,203.470596 206.641388,203.839447 207.376282,204.311249 
	C224.896942,214.457092 242.131012,224.499985 259.679169,234.638794 
	C260.740814,235.174698 261.488373,235.614685 262.559204,236.099365 
	C275.689941,243.706238 288.491516,251.278320 301.308289,258.824646 
	C305.301941,261.176056 309.336670,263.457764 313.903870,266.082611 
	C315.220367,266.746094 315.985596,267.098358 316.973480,267.699341 
	C323.782715,271.603363 330.369263,275.258728 336.955811,278.914062 
	C336.954224,280.678528 336.952667,282.442993 336.625244,284.496277 
	C327.637665,279.862244 318.975983,274.939392 310.314270,270.016541 
	C309.820923,269.663574 309.327606,269.310577 308.288269,268.640137 
	C290.660706,258.498352 273.579102,248.674072 256.497528,238.849777 
	C256.001099,238.504639 255.504700,238.159485 254.451752,237.480057 
	C236.859024,227.348358 219.822815,217.550949 202.786606,207.753540 
	C202.145325,207.305954 201.504059,206.858353 200.580643,206.319641 
z"/>
<path fill="#4AE4A3" opacity="1.000000" stroke="none" 
	d="
M202.460571,207.871597 
	C219.822815,217.550949 236.859024,227.348358 254.152847,237.382446 
	C228.960953,252.416580 203.526764,267.240631 178.022995,281.944000 
	C176.529221,282.805176 173.973663,283.581085 172.754288,282.896606 
	C156.253876,273.634277 139.902771,264.105957 122.728539,254.189468 
	C149.633163,238.535889 175.883850,223.262772 202.460571,207.871597 
z"/>
<path fill="#4AE4A3" opacity="1.000000" stroke="none" 
	d="
M256.197540,239.063873 
	C273.579102,248.674072 290.660706,258.498352 307.980408,268.573120 
	C282.627991,283.747162 257.057098,298.704865 231.393234,313.501221 
	C230.000763,314.304016 227.421387,314.481934 226.083817,313.727905 
	C209.852173,304.578033 193.750061,295.198334 176.836533,285.429169 
	C203.547089,269.837097 229.722336,254.557541 256.197540,239.063873 
z"/>
<path fill="#4AE4A4" opacity="1.000000" stroke="none" 
	d="
M310.083923,270.282593 
	C318.975983,274.939392 327.637665,279.862244 336.606750,284.936951 
	C336.922852,286.149170 336.931580,287.209564 336.880249,288.661926 
	C303.121063,308.582581 269.377716,328.035858 235.780151,347.737732 
	C231.692123,350.134979 228.654022,350.521545 224.554535,347.862885 
	C217.208023,343.098480 209.464493,338.946259 200.959717,333.998749 
	C237.817017,312.522797 273.835297,291.535736 310.083923,270.282593 
z"/>
<path fill="#4BE4A4" opacity="1.000000" stroke="none" 
	d="
M138.863007,266.109558 
	C167.997314,282.927002 196.806610,299.575958 226.272141,316.604156 
	C217.235291,321.847137 208.806702,326.830414 200.247543,331.578369 
	C199.241608,332.136383 197.267624,331.835083 196.162766,331.200378 
	C162.246872,311.717651 128.383316,292.143768 94.514610,272.578888 
	C94.083092,272.329620 93.689865,272.014038 92.922997,271.483124 
	C101.699951,266.395050 109.984070,261.457123 118.442986,256.839478 
	C119.668259,256.170624 121.983604,256.556549 123.362389,257.279022 
	C128.518219,259.980682 133.494415,263.025146 138.863007,266.109558 
z"/>
<path fill="#4BE4A4" opacity="1.000000" stroke="none" 
	d="
M339.865356,156.106049 
	C366.961182,171.742950 393.732239,187.210922 421.404877,203.199829 
	C412.122711,208.588089 403.615234,213.603409 394.992950,218.412949 
	C394.132294,218.893036 392.377045,218.463028 391.367249,217.881729 
	C357.477417,198.372757 323.627472,178.794464 289.776398,159.218170 
	C289.495331,159.055618 289.277893,158.783035 288.331726,157.936111 
	C293.845703,154.731705 299.533264,152.267059 304.198883,148.527435 
	C312.148621,142.155502 319.268524,142.277939 327.093231,148.578705 
	C330.808472,151.570358 335.365143,153.517044 339.865356,156.106049 
z"/>
<path fill="#4BE4A4" opacity="1.000000" stroke="none" 
	d="
M342.536224,285.408966 
	C342.148773,274.516846 342.098785,263.482941 342.106812,252.045288 
	C367.671783,236.890167 393.222900,222.214035 418.635590,207.302078 
	C422.230438,205.192642 424.932953,204.907700 428.541870,207.175446 
	C436.254181,212.021622 444.254364,216.409653 452.933838,221.448120 
	C415.697784,243.039658 379.285736,264.153412 342.536224,285.408966 
z"/>
<path fill="#B1ECDD" opacity="1.000000" stroke="none" 
	d="
M336.969299,278.451111 
	C330.369263,275.258728 323.782715,271.603363 317.197693,267.403992 
	C323.747406,262.908264 330.295593,258.956543 336.843781,255.004822 
	C336.890106,262.665955 336.936432,270.327057 336.969299,278.451111 
z"/>
<path fill="#E9F4FA" opacity="1.000000" stroke="none" 
	d="
M336.914642,254.667084 
	C330.295593,258.956543 323.747406,262.908264 316.975006,267.155304 
	C315.985596,267.098358 315.220367,266.746094 314.241486,266.152740 
	C321.407837,261.636780 328.787872,257.361908 336.513733,253.022934 
	C336.901550,253.415680 336.943542,253.872513 336.914642,254.667084 
z"/>
</svg>