<?xml version="1.0" encoding="UTF-8"?>
<svg version="1.1" xmlns="http://www.w3.org/2000/svg" width="512" height="512">
<path d="M0 0 C1.98 0 3.96 0 6 0 C6 1.98 6 3.96 6 6 C6.71446289 6.27005859 7.42892578 6.54011719 8.16503906 6.81835938 C11.02863414 8.011935 13.65468893 9.38826523 16.359375 10.90625 C17.89754883 11.76778687 17.89754883 11.76778687 19.46679688 12.64672852 C20.55025391 13.25830811 21.63371094 13.8698877 22.75 14.5 C23.86439453 15.12640381 24.97878906 15.75280762 26.12695312 16.39819336 C33.27425699 20.42756315 40.38534771 24.51283365 47.43261719 28.71484375 C48.6511447 29.44093938 49.87784692 30.15351293 51.11279297 30.85131836 C53 32 53 32 55.04736328 33.60375977 C57.40921274 35.29483974 59.16470138 36.33427009 62 37 C66.45640996 35.76411141 70.03217022 33.33344313 73.875 30.8125 C75.5806904 29.76030439 77.28641069 28.70815453 78.99365234 27.65847778 C80.78395188 26.55022514 82.5630049 25.42551583 84.34082031 24.29736328 C89.81195752 20.84050755 95.39869499 17.57826338 100.97613525 14.29696655 C102.71805779 13.26885286 104.45522529 12.23317073 106.19091797 11.19458008 C107.25713379 10.5580249 108.32334961 9.92146973 109.421875 9.265625 C110.35612305 8.70649414 111.29037109 8.14736328 112.25292969 7.57128906 C113.15946289 7.05276367 114.06599609 6.53423828 115 6 C116.02915527 5.40872314 117.05831055 4.81744629 118.11865234 4.20825195 C121 3 121 3 124.6796875 4.40234375 C126.09255006 5.22305068 127.49012744 6.07039651 128.875 6.9375 C129.65037109 7.39552002 130.42574219 7.85354004 131.22460938 8.32543945 C132.92473377 9.33159124 134.61883827 10.34796633 136.30761719 11.37304688 C140.01650179 13.61425172 143.76675759 15.78163958 147.515625 17.95507812 C150.56968119 19.72794975 153.61738635 21.51135437 156.6640625 23.296875 C163.05281992 27.03634589 169.46116076 30.74125034 175.875 34.4375 C176.95458984 35.05971436 178.03417969 35.68192871 179.14648438 36.32299805 C181.3368252 37.58511517 183.52725502 38.84707785 185.71777344 40.10888672 C191.14659942 43.23680148 196.57319281 46.36858448 202 49.5 C204.16665583 50.75001879 206.3333225 52.00001878 208.5 53.25 C221.5 60.75 234.5 68.25 247.5 75.75 C248.57266113 76.36883057 249.64532227 76.98766113 250.75048828 77.62524414 C252.91557071 78.87435518 255.08060982 80.12354129 257.24560547 81.37280273 C262.68615706 84.51202309 268.12747216 87.64990563 273.5703125 90.78515625 C284.57947155 97.12819791 295.58056625 103.48492744 306.5625 109.875 C307.59842285 110.47642822 308.6343457 111.07785645 309.70166016 111.69750977 C311.11970947 112.52400024 311.11970947 112.52400024 312.56640625 113.3671875 C313.40115479 113.85300293 314.23590332 114.33881836 315.09594727 114.83935547 C317 116 317 116 318 117 C318.15986123 118.33658031 318.25397937 119.6811397 318.31982422 121.02563477 C318.36170868 121.88065079 318.40359314 122.73566681 318.44674683 123.61659241 C318.59725407 127.55537585 318.70443004 131.49409703 318.78955078 135.43481445 C318.84619773 137.50825466 318.92795771 139.58117129 319.03564453 141.65258789 C319.90950052 158.77769983 319.90950052 158.77769983 315.47680664 163.93652344 C312.07247865 166.04521429 308.7204235 167.52860505 305 169 C302.94269374 170.15598719 300.90391691 171.34567907 298.88671875 172.5703125 C296.82130725 173.75694145 294.75487119 174.94178857 292.6875 176.125 C290.40206902 177.43832412 288.116919 178.75213727 285.83203125 180.06640625 C284.69072754 180.7227002 283.54942383 181.37899414 282.37353516 182.05517578 C277.19678867 185.03954128 272.03474241 188.04885644 266.875 191.0625 C265.89217041 191.63637451 264.90934082 192.21024902 263.89672852 192.80151367 C260.93084772 194.53382172 257.96535159 196.26678625 255 198 C241.59382119 205.83575666 228.17079317 213.64037711 214.71582031 221.39208984 C203.4520275 227.88499878 192.22447236 234.43942556 181 241 C167.59382119 248.83575666 154.17079317 256.64037711 140.71582031 264.39208984 C129.4520262 270.88499953 118.22457185 277.43959443 107 284 C104.88547008 285.23576849 102.7708861 286.47144446 100.65625 287.70703125 C99.61210937 288.31724121 98.56796875 288.92745117 97.4921875 289.55615234 C95.44142364 290.7527525 93.38937339 291.94715118 91.3359375 293.13916016 C87.06419771 295.6189051 82.80253796 298.10597994 78.59375 300.69140625 C77.95260254 301.07828613 77.31145508 301.46516602 76.65087891 301.86376953 C75.0286578 302.84459555 73.41612889 303.84140615 71.8046875 304.83984375 C68.30940598 306.28566354 66.64957632 305.85741685 63 305 C60.56005859 303.85522461 60.56005859 303.85522461 58.1484375 302.40234375 C57.22933594 301.85642578 56.31023437 301.31050781 55.36328125 300.74804688 C54.37714844 300.15056641 53.39101562 299.55308594 52.375 298.9375 C50.21695671 297.65358399 48.05806784 296.37108843 45.8984375 295.08984375 C44.77018555 294.41808105 43.64193359 293.74631836 42.47949219 293.05419922 C37.27989074 289.97263578 32.02306227 286.99129461 26.76831055 284.00512695 C16.45150008 278.14093964 6.17627314 272.20859331 -4.06689453 266.21655273 C-14.59084625 260.06233258 -25.15380137 253.97630004 -35.71777344 247.89111328 C-41.14659942 244.76319852 -46.57319281 241.63141552 -52 238.5 C-54.16665583 237.24998121 -56.3333225 235.99998122 -58.5 234.75 C-62.83333333 232.25 -67.16666667 229.75 -71.5 227.25 C-72.57354736 226.63068604 -73.64709473 226.01137207 -74.75317383 225.37329102 C-76.90940213 224.12923208 -79.06549049 222.88493058 -81.22143555 221.64038086 C-86.21406952 218.75869341 -91.20787516 215.87912878 -96.20706177 213.00881958 C-97.95024732 212.0078019 -99.69296372 211.00597217 -101.43554688 210.00390625 C-103.60129618 208.75881961 -105.76788871 207.5151979 -107.93554688 206.2734375 C-109.9424844 205.1188322 -111.93602919 203.94061458 -113.91503906 202.73876953 C-117.01476417 200.90341139 -117.01476417 200.90341139 -120.59277344 199.55419922 C-124.5845521 197.74079744 -127.0791864 196.29168425 -130 193 C-132.11466341 186.91316941 -131.86928135 180.40014923 -131.69482422 174.03710938 C-131.62501263 171.00054951 -131.69411071 167.98891457 -131.77734375 164.953125 C-131.847468 151.08402655 -131.847468 151.08402655 -127.42407227 146.09423828 C-124.03780441 143.98940507 -120.69524334 142.48791658 -117 141 C-114.94363966 139.84233097 -112.90495834 138.65260386 -110.88671875 137.4296875 C-108.82130725 136.24305855 -106.75487119 135.05821143 -104.6875 133.875 C-102.40206902 132.56167588 -100.116919 131.24786273 -97.83203125 129.93359375 C-96.69072754 129.2772998 -95.54942383 128.62100586 -94.37353516 127.94482422 C-89.19678867 124.96045872 -84.03474241 121.95114356 -78.875 118.9375 C-77.89217041 118.36362549 -76.90934082 117.78975098 -75.89672852 117.19848633 C-72.93084772 115.46617828 -69.96535159 113.73321375 -67 112 C-63.04214526 109.68667962 -59.08389244 107.37404411 -55.125 105.0625 C-54.146521 104.49112305 -53.16804199 103.91974609 -52.15991211 103.33105469 C-43.50349224 98.2820062 -34.81959256 93.28115002 -26.13134766 88.28710938 C-19.42762318 84.42599337 -12.75885519 80.51589688 -6.18530273 76.4362793 C-2.21132765 74 -2.21132765 74 0 74 C0 49.58 0 25.16 0 0 Z " fill="#4AE4A3" transform="translate(162,103)"/>
<path d="M0 0 C0.32269068 6.11928463 0.55779191 12.23357764 0.71411133 18.359375 C0.77928256 20.43967956 0.86785639 22.51939309 0.98071289 24.59765625 C1.89068682 41.79245775 1.89068682 41.79245775 -2.51879883 46.94091797 C-5.92470176 49.04975886 -9.27719929 50.53080943 -13 52 C-15.05741363 53.15579609 -17.0962004 54.34548586 -19.11328125 55.5703125 C-21.17869275 56.75694145 -23.24512881 57.94178857 -25.3125 59.125 C-27.59793098 60.43832412 -29.883081 61.75213727 -32.16796875 63.06640625 C-33.87992432 64.05084717 -33.87992432 64.05084717 -35.62646484 65.05517578 C-40.80321133 68.03954128 -45.96525759 71.04885644 -51.125 74.0625 C-52.10782959 74.63637451 -53.09065918 75.21024902 -54.10327148 75.80151367 C-57.06915228 77.53382172 -60.03464841 79.26678625 -63 81 C-76.40617881 88.83575666 -89.82920683 96.64037711 -103.28417969 104.39208984 C-114.5479725 110.88499878 -125.77552764 117.43942556 -137 124 C-150.40617881 131.83575666 -163.82920683 139.64037711 -177.28417969 147.39208984 C-188.5479738 153.88499953 -199.77542815 160.43959443 -211 167 C-213.11452992 168.23576849 -215.2291139 169.47144446 -217.34375 170.70703125 C-218.38789063 171.31724121 -219.43203125 171.92745117 -220.5078125 172.55615234 C-222.55857636 173.7527525 -224.61062661 174.94715118 -226.6640625 176.13916016 C-230.93580229 178.6189051 -235.19746204 181.10597994 -239.40625 183.69140625 C-240.04739746 184.07828613 -240.68854492 184.46516602 -241.34912109 184.86376953 C-242.9713422 185.84459555 -244.58387111 186.84140615 -246.1953125 187.83984375 C-249.69059402 189.28566354 -251.35042368 188.85741685 -255 188 C-257.43994141 186.85522461 -257.43994141 186.85522461 -259.8515625 185.40234375 C-260.77066406 184.85642578 -261.68976563 184.31050781 -262.63671875 183.74804688 C-263.62285156 183.15056641 -264.60898437 182.55308594 -265.625 181.9375 C-267.78304329 180.65358399 -269.94193216 179.37108843 -272.1015625 178.08984375 C-273.22981445 177.41808105 -274.35806641 176.74631836 -275.52050781 176.05419922 C-280.72010926 172.97263578 -285.97693773 169.99129461 -291.23168945 167.00512695 C-301.54849992 161.14093964 -311.82372686 155.20859331 -322.06689453 149.21655273 C-332.59084625 143.06233258 -343.15380137 136.97630004 -353.71777344 130.89111328 C-359.14659942 127.76319852 -364.57319281 124.63141552 -370 121.5 C-372.16665583 120.24998121 -374.3333225 118.99998122 -376.5 117.75 C-380.83333333 115.25 -385.16666667 112.75 -389.5 110.25 C-390.57354736 109.63068604 -391.64709473 109.01137207 -392.75317383 108.37329102 C-394.90940213 107.12923208 -397.06549049 105.88493058 -399.22143555 104.64038086 C-404.21406952 101.75869341 -409.20787516 98.87912878 -414.20706177 96.00881958 C-415.95024732 95.0078019 -417.69296372 94.00597217 -419.43554688 93.00390625 C-421.60129618 91.75881961 -423.76788871 90.5151979 -425.93554688 89.2734375 C-427.94198238 88.11912102 -429.93450345 86.94025745 -431.91186523 85.73681641 C-435.01617161 83.89860406 -435.01617161 83.89860406 -438.62133789 82.57177734 C-442.66012182 80.76376021 -445.10792912 79.37338311 -448 76 C-450.13998695 68.78059752 -449.21514659 60.91477485 -448.8125 53.5 C-448.74723951 51.41684643 -448.68793276 49.3334973 -448.63476562 47.25 C-448.49198291 42.16181849 -448.268047 37.0830593 -448 32 C-439.91283887 36.36554591 -431.91107684 40.86823904 -423.9375 45.4375 C-422.7078663 46.1412318 -421.47821091 46.84492568 -420.24853516 47.54858398 C-408.88911406 54.05195756 -397.55106845 60.59233639 -386.21777344 67.14111328 C-380.81329355 70.26324605 -375.40652588 73.38141204 -370 76.5 C-367.8333225 77.74998122 -365.66665583 78.99998121 -363.5 80.25 C-362.4275 80.86875 -361.355 81.4875 -360.25 82.125 C-298.5 117.75 -298.5 117.75 -295.24438477 119.62841797 C-293.0966418 120.86738234 -290.94869545 122.10599424 -288.80053711 123.34423828 C-283.70820563 126.28014105 -278.61808305 129.21969755 -273.5350647 132.17169189 C-271.12565992 133.57068053 -268.7150991 134.96767029 -266.30444336 136.36450195 C-264.59701018 137.35498071 -262.89126028 138.3483594 -261.18554688 139.34179688 C-260.15623047 139.93798828 -259.12691406 140.53417969 -258.06640625 141.1484375 C-257.15834229 141.67614746 -256.25027832 142.20385742 -255.31469727 142.74755859 C-252.95258499 144.1121051 -252.95258499 144.1121051 -250 145 C-247.5608541 143.97381067 -247.5608541 143.97381067 -244.93359375 142.34375 C-243.90435791 141.74119385 -242.87512207 141.1386377 -241.81469727 140.51782227 C-240.70022217 139.85194092 -239.58574707 139.18605957 -238.4375 138.5 C-237.26616781 137.81005574 -236.09420059 137.12118856 -234.92163086 136.43334961 C-232.48406482 135.00244105 -230.04931072 133.56690635 -227.61621094 132.12841797 C-223.1822847 129.51221518 -218.71679402 126.95172968 -214.25073242 124.39086914 C-204.32484673 118.69862947 -194.45682123 112.91555507 -184.625 107.0625 C-174.23955354 100.88100888 -163.78239198 94.84146915 -153.27880859 88.86401367 C-142.78334836 82.88975209 -132.34852473 76.81507116 -121.92675781 70.71337891 C-107.55043686 62.29721103 -93.15029945 53.9239385 -78.71582031 45.60791016 C-68.4502843 39.6904371 -58.21517763 33.7216058 -47.98535156 27.74267578 C-44.94792025 25.96959885 -41.90792052 24.20100172 -38.8671875 22.43359375 C-28.18695913 16.22206597 -17.53642434 9.97050711 -6.97753906 3.55419922 C-6.20249023 3.0851416 -5.42744141 2.61608398 -4.62890625 2.1328125 C-3.94900635 1.71918457 -3.26910645 1.30555664 -2.56860352 0.87939453 C-1 0 -1 0 0 0 Z " fill="#39C887" transform="translate(480,220)"/>
<path d="M0 0 C11.23809524 5.61904762 11.23809524 5.61904762 15.2421875 7.98828125 C16.1482373 8.52122803 17.05428711 9.0541748 17.98779297 9.60327148 C19.41696045 10.4493396 19.41696045 10.4493396 20.875 11.3125 C29.84077442 16.58173547 38.83959278 21.78879283 47.875 26.9375 C50.24237737 28.2874277 52.60953624 29.63773801 54.9765625 30.98828125 C55.8537645 31.48877235 55.8537645 31.48877235 56.74868774 31.99937439 C72.20540533 40.82275003 87.59935921 49.75455564 102.96630859 58.7331543 C110.25651325 62.99005548 117.56161553 67.22055673 124.875 71.4375 C125.93928223 72.05141602 127.00356445 72.66533203 128.10009766 73.29785156 C133.21296754 76.24566003 138.3280804 79.18947442 143.44821167 82.12464905 C145.84713889 83.50028294 148.24494779 84.8778592 150.64263916 86.25564575 C152.33600979 87.22762009 154.03102352 88.19673004 155.72607422 89.16577148 C156.7523291 89.75559814 157.77858398 90.3454248 158.8359375 90.953125 C159.73876465 91.47036133 160.6415918 91.98759766 161.57177734 92.52050781 C162.37309082 93.00874023 163.1744043 93.49697266 164 94 C164.70071625 94.39353165 165.4014325 94.78706329 166.12338257 95.19252014 C168 97 168 97 168.48101807 99.86637878 C168.47213562 101.03219986 168.46325317 102.19802094 168.45410156 103.39916992 C168.45468567 104.04334366 168.45526978 104.6875174 168.45587158 105.35121155 C168.45308714 107.47818089 168.42198214 109.60374462 168.390625 111.73046875 C168.38316379 113.20590957 168.37747029 114.6813603 168.37347412 116.15681458 C168.35820801 120.03851729 168.3189187 123.91962045 168.2746582 127.80108643 C168.23372602 131.76249073 168.21546755 135.72399201 168.1953125 139.68554688 C168.1524246 147.45730446 168.08416248 155.2285682 168 163 C164.6220259 161.67380825 161.48221021 160.24435047 158.32421875 158.453125 C157.42662842 157.94539551 156.52903809 157.43766602 155.60424805 156.91455078 C154.64172119 156.36524902 153.67919434 155.81594727 152.6875 155.25 C151.67276611 154.67362793 150.65803223 154.09725586 149.61254883 153.50341797 C140.42443359 148.27103185 131.2930437 142.94285446 122.16796875 137.6015625 C115.79434912 133.87369234 109.39872633 130.18456223 103 126.5 C94.65194291 121.69160836 86.31756732 116.86094268 78 112 C66.47034289 105.26313383 54.90614687 98.58709844 43.33496094 91.921875 C39.91246454 89.94955497 36.49116227 87.97517387 33.0703125 86 C31.92804199 85.34056396 30.78577148 84.68112793 29.60888672 84.00170898 C27.45676611 82.75921051 25.30473923 81.51654969 23.15283203 80.27368164 C15.44776432 75.82662481 7.72437864 71.41393065 0 67 C0 44.89 0 22.78 0 0 Z " fill="#B1EDDE" transform="translate(168,115)"/>
<path d="M0 0 C0.75001886 6.00015089 1.43392269 12.05347933 0 18 C-2.88402058 21.56662901 -6.45617211 23.01286018 -10.59814453 24.85595703 C-15.67949816 27.27628872 -20.4624487 30.27736169 -25.3125 33.125 C-27.59636153 34.44105148 -29.88153392 35.75483056 -32.16796875 37.06640625 C-38.50090025 40.70808774 -44.81684204 44.37810296 -51.125 48.0625 C-52.10782959 48.63637451 -53.09065918 49.21024902 -54.10327148 49.80151367 C-57.06915228 51.53382172 -60.03464841 53.26678625 -63 55 C-76.40617881 62.83575666 -89.82920683 70.64037711 -103.28417969 78.39208984 C-114.5479725 84.88499878 -125.77552764 91.43942556 -137 98 C-150.40617881 105.83575666 -163.82920683 113.64037711 -177.28417969 121.39208984 C-188.5479738 127.88499953 -199.77542815 134.43959443 -211 141 C-213.11452992 142.23576849 -215.2291139 143.47144446 -217.34375 144.70703125 C-218.38789063 145.31724121 -219.43203125 145.92745117 -220.5078125 146.55615234 C-222.55857636 147.7527525 -224.61062661 148.94715118 -226.6640625 150.13916016 C-230.93580229 152.6189051 -235.19746204 155.10597994 -239.40625 157.69140625 C-240.04739746 158.07828613 -240.68854492 158.46516602 -241.34912109 158.86376953 C-242.9713422 159.84459555 -244.58387111 160.84140615 -246.1953125 161.83984375 C-249.69059402 163.28566354 -251.35042368 162.85741685 -255 162 C-257.43994141 160.85522461 -257.43994141 160.85522461 -259.8515625 159.40234375 C-260.77066406 158.85642578 -261.68976563 158.31050781 -262.63671875 157.74804688 C-263.62285156 157.15056641 -264.60898437 156.55308594 -265.625 155.9375 C-267.78304329 154.65358399 -269.94193216 153.37108843 -272.1015625 152.08984375 C-273.22981445 151.41808105 -274.35806641 150.74631836 -275.52050781 150.05419922 C-280.72010926 146.97263578 -285.97693773 143.99129461 -291.23168945 141.00512695 C-301.54849992 135.14093964 -311.82372686 129.20859331 -322.06689453 123.21655273 C-332.59084625 117.06233258 -343.15380137 110.97630004 -353.71777344 104.89111328 C-359.14659942 101.76319852 -364.57319281 98.63141552 -370 95.5 C-372.16665583 94.24998121 -374.3333225 92.99998122 -376.5 91.75 C-380.83333333 89.25 -385.16666667 86.75 -389.5 84.25 C-390.57354736 83.63068604 -391.64709473 83.01137207 -392.75317383 82.37329102 C-394.90940213 81.12923208 -397.06549049 79.88493058 -399.22143555 78.64038086 C-405.94789774 74.75794889 -412.67880019 70.88339454 -419.41650391 67.02050781 C-421.65229753 65.73143054 -423.88262919 64.43282565 -426.10693359 63.12402344 C-432.67194477 59.26410045 -432.67194477 59.26410045 -439.51953125 55.94921875 C-445.55614329 53.10422824 -445.55614329 53.10422824 -448 50 C-449.4452359 43.72370777 -448.74642724 37.32868222 -448 31 C-444.21481268 32.4160506 -440.80250679 34.15421065 -437.30078125 36.16796875 C-436.18735352 36.80621582 -435.07392578 37.44446289 -433.92675781 38.10205078 C-432.72195086 38.79710633 -431.51719971 39.4922586 -430.3125 40.1875 C-429.05711328 40.90894749 -427.80157708 41.63013494 -426.54589844 42.35107422 C-423.31879708 44.2050294 -420.09403586 46.06301465 -416.86993408 47.92218018 C-415.09079075 48.94766871 -413.31095951 49.97194872 -411.53076172 50.99560547 C-399.05268898 58.17081885 -386.60365887 65.39388264 -374.17871094 72.66064453 C-366.47975166 77.15527427 -358.74531754 81.58599899 -351 86 C-341.27884383 91.5400173 -331.59105342 97.13374809 -321.93310547 102.78344727 C-311.43408508 108.92308802 -300.89601868 114.99441585 -290.35693359 121.06494141 C-286.86807297 123.07604754 -283.38105172 125.09030995 -279.89453125 127.10546875 C-278.71794788 127.78525786 -277.54135295 128.46502695 -276.36474609 129.14477539 C-274.14731622 130.42598166 -271.93017441 131.70768667 -269.71337891 132.98999023 C-267.72665396 134.13737222 -265.73752702 135.28060883 -263.74560547 136.41894531 C-261.9524084 137.45155639 -260.16950805 138.50231745 -258.39892578 139.57324219 C-257.60856934 140.04149414 -256.81821289 140.50974609 -256.00390625 140.9921875 C-255.32271729 141.40581543 -254.64152832 141.81944336 -253.93969727 142.24560547 C-251.447662 143.21481742 -250.48073566 142.95316021 -248 142 C-246.28063875 141.14574157 -244.5874284 140.23804826 -242.9140625 139.296875 C-241.9125415 138.73556885 -240.91102051 138.1742627 -239.87915039 137.59594727 C-238.80528076 136.98678467 -237.73141113 136.37762207 -236.625 135.75 C-235.50665771 135.11956787 -234.38831543 134.48913574 -233.23608398 133.83959961 C-225.22787867 129.30775424 -217.2861302 124.67092114 -209.37890625 119.96557617 C-202.32810364 115.77158604 -195.23578302 111.65389471 -188.125 107.5625 C-179.69474063 102.71054321 -171.27482331 97.84198399 -162.875 92.9375 C-161.89144531 92.36322266 -160.90789062 91.78894531 -159.89453125 91.19726562 C-156.92940104 89.46533346 -153.96462837 87.73279104 -151 86 C-137.59382119 78.16424334 -124.17079317 70.35962289 -110.71582031 62.60791016 C-99.4520275 56.11500122 -88.22447236 49.56057444 -77 43 C-63.60980073 35.1735832 -50.20843444 27.36813724 -36.76196289 19.63867188 C-31.19873459 16.4373697 -25.65195252 13.21162069 -20.12890625 9.94140625 C-18.4747168 8.96494141 -18.4747168 8.96494141 -16.78710938 7.96875 C-14.6796897 6.72293437 -12.57537456 5.47184809 -10.47460938 4.21484375 C-9.53552734 3.66054687 -8.59644531 3.10625 -7.62890625 2.53515625 C-6.80463135 2.044104 -5.98035645 1.55305176 -5.13110352 1.04711914 C-3 0 -3 0 0 0 Z " fill="#7F4F59" transform="translate(480,246)"/>
<path d="M0 0 C1.98 0 3.96 0 6 0 C6 1.98 6 3.96 6 6 C7.07169434 6.40508789 7.07169434 6.40508789 8.16503906 6.81835938 C11.02863414 8.011935 13.65468893 9.38826523 16.359375 10.90625 C17.38466309 11.48044678 18.40995117 12.05464355 19.46630859 12.64624023 C20.54992676 13.25798096 21.63354492 13.86972168 22.75 14.5 C23.86584473 15.127854 24.98168945 15.75570801 26.13134766 16.40258789 C39.89419887 24.16759369 53.53266337 32.07197863 66.71484375 40.796875 C67.59269531 41.35890625 68.47054687 41.9209375 69.375 42.5 C70.14585937 43.0053125 70.91671875 43.510625 71.7109375 44.03125 C74.67945803 45.2875522 75.91036993 44.87029884 79 44 C81.00603339 42.96619996 82.97110116 41.85116154 84.90234375 40.68359375 C86.03389893 40.00474121 87.1654541 39.32588867 88.33129883 38.62646484 C88.92117584 38.26816589 89.51105286 37.90986694 90.11880493 37.54071045 C91.94622761 36.43220588 93.77996124 35.33494436 95.6159668 34.24072266 C100.66211072 31.23017954 105.69502926 28.20156827 110.6796875 25.08984375 C111.31398682 24.70320557 111.94828613 24.31656738 112.60180664 23.91821289 C114.17716484 22.95752992 115.73964163 21.9758075 117.30078125 20.9921875 C120.94520727 19.65255768 122.42919002 20.58596907 126 22 C127.97314421 23.03450611 129.91829715 24.12372412 131.8359375 25.2578125 C133.43115234 26.19560547 133.43115234 26.19560547 135.05859375 27.15234375 C136.70021484 28.12880859 136.70021484 28.12880859 138.375 29.125 C139.49261719 29.78371094 140.61023438 30.44242188 141.76171875 31.12109375 C144.51083725 32.74236876 147.25676282 34.36880013 150 36 C146.95567162 39.33214411 143.83231035 41.43715145 139.90625 43.64453125 C139.31888062 43.97740646 138.73151123 44.31028168 138.12634277 44.65324402 C136.25430526 45.71251195 134.37739214 46.76275715 132.5 47.8125 C130.65904375 48.84973708 128.81914152 49.88882718 126.97924805 50.927948 C125.76893943 51.61116778 124.55816801 52.29356838 123.34692383 52.97512817 C117.52718735 56.25313014 111.75824992 59.61510078 106 63 C110.63825801 61.96516461 114.19959593 59.62221887 118.24609375 57.1796875 C121.55814894 55.76090641 122.58458653 56.02218023 126 57 C128.00556029 57.98967361 129.97337229 59.05748173 131.91015625 60.17578125 C132.47115524 60.49741745 133.03215424 60.81905365 133.6101532 61.1504364 C135.43173026 62.19747846 137.24716528 63.25467827 139.0625 64.3125 C140.31583713 65.03622931 141.56941971 65.75953373 142.82324219 66.48242188 C153.28955342 72.53073677 163.67246335 78.71781181 174 85 C171.48777794 87.61437086 168.95149857 89.35302032 165.8125 91.1875 C164.91144531 91.71730469 164.01039063 92.24710937 163.08203125 92.79296875 C162.39496094 93.19128906 161.70789063 93.58960938 161 94 C165.67889143 92.71330486 169.09350386 90.74193482 172.97265625 87.92578125 C175.72946624 86.66689114 177.09702585 87.21486903 180 88 C182.38989258 89.17651367 182.38989258 89.17651367 184.89453125 90.66796875 C186.31185547 91.50400635 186.31185547 91.50400635 187.7578125 92.35693359 C188.76585937 92.96102051 189.77390625 93.56510742 190.8125 94.1875 C192.95429934 95.45464303 195.09623056 96.72156317 197.23828125 97.98828125 C198.34381348 98.64521973 199.4493457 99.3021582 200.58837891 99.97900391 C206.20794232 103.30795381 211.85498951 106.58941586 217.5 109.875 C219.53137997 111.059673 221.56264212 112.24454806 223.59375 113.4296875 C224.87282227 114.17581299 224.87282227 114.17581299 226.17773438 114.93701172 C227.07975586 115.46319092 227.07975586 115.46319092 228 116 C225.1688816 119.059541 222.42966878 121.07935212 218.7734375 123.06640625 C217.74935791 123.62956543 216.72527832 124.19272461 215.67016602 124.77294922 C214.58276123 125.36350098 213.49535645 125.95405273 212.375 126.5625 C203.53873246 131.42235105 194.83468925 136.41293807 186.30810547 141.79907227 C181.19852361 145 181.19852361 145 179 145 C179 158.53 179 172.06 179 186 C177.68 186.33 176.36 186.66 175 187 C174.7829541 186.08412109 174.5659082 185.16824219 174.34228516 184.22460938 C172.68562565 180.24476967 171.26809314 179.44498704 167.5234375 177.40625 C166.39019043 176.77581787 165.25694336 176.14538574 164.08935547 175.49584961 C162.85128935 174.83046896 161.61316948 174.16518829 160.375 173.5 C159.09797196 172.79578099 157.82210496 172.08945277 156.54736328 171.38110352 C153.9479143 169.93772171 151.34450871 168.50190236 148.73828125 167.07080078 C143.39355461 164.12406436 138.13448664 161.03308863 132.875 157.9375 C124.60145823 153.09324141 116.30811535 148.28471076 108 143.5 C98.66644047 138.12388634 89.35360425 132.71368563 80.05444336 127.27832031 C71.46557466 122.26207582 62.84914471 117.2943421 54.22973633 112.33081055 C47.54252451 108.47662459 40.87835149 104.58665948 34.23486328 100.65771484 C25.21525929 95.33719962 16.10266888 90.1766319 7 85 C6.01 85.99 6.01 85.99 5 87 C3.68 87 2.36 87 1 87 C0.01745109 76.82378465 -0.13231795 66.75215492 -0.09765625 56.54296875 C-0.09578615 54.902451 -0.09436505 53.26193269 -0.09336853 51.62141418 C-0.08958992 47.34885049 -0.07980065 43.07632197 -0.06866455 38.80377197 C-0.05834908 34.42582678 -0.05384942 30.04787578 -0.04882812 25.66992188 C-0.03817316 17.11326529 -0.02115427 8.55663705 0 0 Z M6 12 C6 34.11 6 56.22 6 79 C11.94 82.3 17.88 85.6 24 89 C27.84331346 91.21483257 31.67784714 93.43728936 35.5 95.6875 C37.55437201 96.89116363 39.60907123 98.09426893 41.6640625 99.296875 C42.7046582 99.90595703 43.74525391 100.51503906 44.81738281 101.14257812 C50.15891119 104.25997211 55.51651012 107.34937916 60.875 110.4375 C61.95313965 111.05898926 63.0312793 111.68047852 64.14208984 112.32080078 C67.42778559 114.21434377 70.71382874 116.10728237 74 118 C87.67270017 125.87498844 101.33513227 133.76591285 114.95703125 141.72851562 C123.40966228 146.6656963 131.89035637 151.5533659 140.37695312 156.43188477 C145.7594661 159.53188296 151.12465895 162.6569125 156.4609375 165.8359375 C157.47913574 166.44236084 158.49733398 167.04878418 159.54638672 167.67358398 C161.47490956 168.82530969 163.40112911 169.98090344 165.32470703 171.14086914 C166.17661621 171.64996826 167.02852539 172.15906738 167.90625 172.68359375 C169.02483398 173.35733032 169.02483398 173.35733032 170.16601562 174.04467773 C171.95098283 175.15399362 171.95098283 175.15399362 174 175 C174.30208383 166.53343293 174.5326007 158.0691371 174.67355824 149.59850311 C174.74123914 145.66431077 174.8328841 141.73381917 174.98071289 137.80175781 C175.12266956 134.00181777 175.19982029 130.20541805 175.23340416 126.4030304 C175.25730916 124.95770983 175.30400614 123.51257014 175.37449074 122.06877136 C175.58946811 117.47990853 175.53444796 113.39853693 174 109 C170.04736293 105.29295522 165.92812538 103.26859549 161 101 C158.97428874 99.84130121 156.95796065 98.66583107 154.95703125 97.46484375 C152.90994449 96.28716522 150.86173171 95.1114422 148.8125 93.9375 C147.11168147 92.9595355 145.41086461 91.98156809 143.71014404 91.00343323 C141.96320818 89.99905965 140.21579442 88.9955222 138.46826172 87.9921875 C132.93379096 84.81315882 127.40396711 81.62608873 121.875 78.4375 C120.79839111 77.81673584 119.72178223 77.19597168 118.61254883 76.55639648 C111.39601456 72.39194645 104.19396945 68.20329129 97 64 C82.03390655 55.25727222 67.03119412 46.57774398 51.9765625 37.98828125 C51.39030594 37.65378967 50.80404938 37.3192981 50.20002747 36.97467041 C47.84123726 35.62908077 45.48236173 34.28364191 43.12301636 32.93902588 C33.4384966 27.41853582 23.80052722 21.8235741 14.19677734 16.16381836 C13.26172363 15.6147583 12.32666992 15.06569824 11.36328125 14.5 C10.54126221 14.0153125 9.71924316 13.530625 8.87231445 13.03125 C7.21026781 11.9195918 7.21026781 11.9195918 6 12 Z " fill="#525D63" transform="translate(162,103)"/>
<path d="M0 0 C8.08716113 4.36554591 16.08892316 8.86823904 24.0625 13.4375 C25.2921337 14.1412318 26.52178909 14.84492568 27.75146484 15.54858398 C39.11088594 22.05195756 50.44893155 28.59233639 61.78222656 35.14111328 C67.18670645 38.26324605 72.59347412 41.38141204 78 44.5 C80.1666775 45.74998122 82.33334417 46.99998121 84.5 48.25 C85.5725 48.86875 86.645 49.4875 87.75 50.125 C118.625 67.9375 118.625 67.9375 149.5 85.75 C150.57443359 86.36979736 151.64886719 86.98959473 152.75585938 87.62817383 C154.90323373 88.86718039 157.05037267 90.10659503 159.19726562 91.34643555 C164.2907183 94.2872612 169.38655143 97.22372619 174.49072266 100.14590454 C176.9115662 101.53218831 179.33107889 102.92078547 181.75048828 104.30957031 C183.46647617 105.29328204 185.18439193 106.27362835 186.90234375 107.25390625 C187.93488281 107.846875 188.96742188 108.43984375 190.03125 109.05078125 C190.94455078 109.57325439 191.85785156 110.09572754 192.79882812 110.6340332 C195 112 195 112 197 114 C197.22705078 116.43017578 197.22705078 116.43017578 197.1953125 119.4453125 C197.18564453 121.05986328 197.18564453 121.05986328 197.17578125 122.70703125 C197.15064453 124.39892578 197.15064453 124.39892578 197.125 126.125 C197.11597656 127.26066406 197.10695312 128.39632812 197.09765625 129.56640625 C197.07403098 132.37781299 197.04109013 135.18880298 197 138 C188.03548399 133.70953433 179.45017071 129.00454573 170.91796875 123.91796875 C165.16636982 120.49130689 159.36445224 117.15296583 153.5625 113.8125 C152.45616211 113.17505859 151.34982422 112.53761719 150.20996094 111.88085938 C147.93844323 110.57220371 145.66679503 109.26377451 143.39501953 107.95556641 C137.9283002 104.80667946 132.46425113 101.65316736 127 98.5 C124.83334689 97.2499765 122.66668021 95.99997653 120.5 94.75 C107.5 87.25 94.5 79.75 81.5 72.25 C80.42733887 71.63116943 79.35467773 71.01233887 78.24951172 70.37475586 C76.08442929 69.12564482 73.91939018 67.87645871 71.75439453 66.62719727 C66.31384294 63.48797691 60.87252784 60.35009437 55.4296875 57.21484375 C23.02292242 38.54253493 23.02292242 38.54253493 14.81835938 33.59790039 C11.96167613 31.92157418 11.96167613 31.92157418 8.66601562 30.49389648 C5.35466477 28.90383341 2.70872706 27.48654229 0 25 C-1.43846082 20.60004583 -1.15518775 16.63125162 -0.75 12.0625 C-0.66878906 10.32129883 -0.66878906 10.32129883 -0.5859375 8.54492188 C-0.44490009 5.68891431 -0.24837441 2.84834503 0 0 Z " fill="#28AE6D" transform="translate(32,252)"/>
<path d="M0 0 C7.37128071 3.99663854 14.70306503 8.05676564 22 12.1875 C23.47255249 13.02027466 23.47255249 13.02027466 24.97485352 13.86987305 C34.3534359 19.18316841 43.68498359 24.57620398 53 30 C49.74665242 32.71021046 46.52774111 34.96244377 42.81640625 36.99609375 C41.81810791 37.54773193 40.81980957 38.09937012 39.79125977 38.66772461 C38.72576904 39.25175049 37.66027832 39.83577637 36.5625 40.4375 C28.32938118 44.997427 20.14874772 49.62167361 12.0625 54.4375 C4.27047274 59.06890287 -3.53311835 63.67922823 -11.37210083 68.23074341 C-13.09116978 69.23032878 -14.80721472 70.235109 -16.52319336 71.23999023 C-17.56999268 71.84657471 -18.61679199 72.45315918 -19.6953125 73.078125 C-21.0877417 73.88878418 -21.0877417 73.88878418 -22.50830078 74.71582031 C-24.7589401 75.8757618 -26.4929312 76.70512782 -29 77 C-31.51673259 75.76932392 -33.76668335 74.48919685 -36.125 73 C-37.63433922 72.0789612 -39.14483727 71.15981975 -40.65625 70.2421875 C-41.49414062 69.73010742 -42.33203125 69.21802734 -43.1953125 68.69042969 C-48.05258445 65.76287476 -52.97416035 62.94604116 -57.89154053 60.12109375 C-60.67150342 58.52365019 -63.4486792 56.92136889 -66.2265625 55.3203125 C-70.47994738 52.87239019 -74.73684037 50.43085606 -79 48 C-75.84792612 44.48902662 -72.36040553 42.3303427 -68.25 40.125 C-66.80622575 39.3313631 -65.36358899 38.53565467 -63.921875 37.73828125 C-62.74141602 37.08593506 -62.74141602 37.08593506 -61.53710938 36.42041016 C-56.82176981 33.78050969 -52.16348819 31.04262304 -47.5 28.3125 C-46.4908252 27.72227051 -45.48165039 27.13204102 -44.44189453 26.52392578 C-42.35788723 25.30484212 -40.27406793 24.085437 -38.19042969 22.86572266 C-34.95449977 20.97339205 -31.71598261 19.08556769 -28.4765625 17.19921875 C-27.41244141 16.57942139 -26.34832031 15.95962402 -25.25195312 15.32104492 C-23.23263785 14.14505549 -21.21312097 12.96941216 -19.19335938 11.79418945 C-9.04759714 6.62231556 -9.04759714 6.62231556 0 0 Z " fill="#49E3A3" transform="translate(201,206)"/>
<path d="M0 0 C1.11568359 0.64001953 1.11568359 0.64001953 2.25390625 1.29296875 C8.00027727 4.58339371 13.75156641 7.86381206 19.5234375 11.109375 C30.44548593 17.25359582 41.307711 23.46300815 52 30 C49.16572371 33.05185208 46.38442939 35.13081497 42.765625 37.1796875 C41.72905762 37.77144775 40.69249023 38.36320801 39.62451172 38.97290039 C37.95412842 39.9144397 37.95412842 39.9144397 36.25 40.875 C35.0791575 41.54147737 33.90875377 42.20872609 32.73876953 42.87670898 C30.93612444 43.9057962 29.1332372 44.93442774 27.32901001 45.96073914 C21.48580522 49.28498832 15.67838339 52.66927018 9.875 56.0625 C8.90812256 56.62445068 7.94124512 57.18640137 6.94506836 57.76538086 C1.71592558 60.80772017 -3.48504352 63.88996573 -8.66015625 67.0234375 C-9.75247559 67.67820068 -10.84479492 68.33296387 -11.97021484 69.00756836 C-14.07019906 70.26727205 -16.16335956 71.53844207 -18.24853516 72.82250977 C-19.19132324 73.38510498 -20.13411133 73.9477002 -21.10546875 74.52734375 C-22.34526489 75.28132446 -22.34526489 75.28132446 -23.61010742 76.05053711 C-26.60894475 77.24192319 -27.95656444 77.00252255 -31 76 C-33.4375 74.79174805 -33.4375 74.79174805 -36 73.26171875 C-36.96010986 72.69428955 -37.92021973 72.12686035 -38.90942383 71.54223633 C-40.43925903 70.62414185 -40.43925903 70.62414185 -42 69.6875 C-44.14912459 68.41302488 -46.29887731 67.13960843 -48.44921875 65.8671875 C-50.07996338 64.89990723 -50.07996338 64.89990723 -51.74365234 63.91308594 C-57.61040782 60.46640009 -63.54407853 57.13561785 -69.48632812 53.82104492 C-70.30166016 53.36060791 -71.11699219 52.9001709 -71.95703125 52.42578125 C-72.66835205 52.02786377 -73.37967285 51.62994629 -74.11254883 51.2199707 C-76.0157069 49.98984771 -77.46516461 48.65920843 -79 47 C-66.45902959 39.54439119 -53.87467863 32.17032089 -41.22314453 24.90380859 C-35.11907985 21.39286149 -29.03530581 17.85139506 -22.97265625 14.26953125 C-22.30544052 13.87589386 -21.63822479 13.48225647 -20.95079041 13.07669067 C-17.6860017 11.15038708 -14.4238278 9.21989526 -11.16577148 7.28222656 C-9.98562865 6.58509288 -8.80537715 5.88814311 -7.625 5.19140625 C-6.58601563 4.57467041 -5.54703125 3.95793457 -4.4765625 3.32250977 C-2 2 -2 2 0 2 C0 1.34 0 0.68 0 0 Z " fill="#4AE3A3" transform="translate(255,237)"/>
<path d="M0 0 C11.23809524 5.61904762 11.23809524 5.61904762 15.2421875 7.98828125 C16.1482373 8.52122803 17.05428711 9.0541748 17.98779297 9.60327148 C19.41696045 10.4493396 19.41696045 10.4493396 20.875 11.3125 C29.84077632 16.58173659 38.83966316 21.78866711 47.875 26.9375 C50.22154172 28.27571302 52.56785253 29.61433043 54.9140625 30.953125 C55.49556061 31.28492767 56.07705872 31.61673035 56.67617798 31.95858765 C63.20880806 35.687633 69.73146324 39.43388215 76.25 43.1875 C77.84690674 44.10486938 77.84690674 44.10486938 79.47607422 45.04077148 C85.05498563 48.25682347 90.56417134 51.54733849 96 55 C92.55123895 57.88402396 89.07583543 60.22994714 85.16015625 62.43359375 C84.02465332 63.0769165 82.88915039 63.72023926 81.71923828 64.38305664 C80.50048526 65.06815534 79.28156905 65.7529638 78.0625 66.4375 C75.53874474 67.85912566 73.01670193 69.2837395 70.49609375 70.7109375 C69.86437256 71.06843582 69.23265137 71.42593414 68.58178711 71.79426575 C64.49912245 74.11602863 60.47350386 76.51535824 56.47265625 78.9765625 C54.98463501 79.88643921 54.98463501 79.88643921 53.46655273 80.81469727 C51.61249771 81.95510279 49.76647084 83.10869533 47.92993164 84.27709961 C47.09969482 84.7850708 46.26945801 85.29304199 45.4140625 85.81640625 C44.34599365 86.48845093 44.34599365 86.48845093 43.25634766 87.17407227 C40.1091313 88.3260992 38.21718855 87.86929789 35 87 C32.07495117 85.58886719 32.07495117 85.58886719 29.04296875 83.796875 C27.92986328 83.14589844 26.81675781 82.49492187 25.66992188 81.82421875 C24.50892209 81.13313579 23.34811579 80.44172766 22.1875 79.75 C19.91049208 78.41088713 17.63315449 77.07233465 15.35546875 75.734375 C14.35153076 75.13850586 13.34759277 74.54263672 12.31323242 73.92871094 C8.24304069 71.55935609 4.11692841 69.28718245 0 67 C0 44.89 0 22.78 0 0 Z " fill="#B2EDDE" transform="translate(168,115)"/>
<path d="M0 0 C3.78518732 1.4160506 7.19749321 3.15421065 10.69921875 5.16796875 C11.81264648 5.80621582 12.92607422 6.44446289 14.07324219 7.10205078 C15.27804914 7.79710633 16.48280029 8.4922586 17.6875 9.1875 C18.94288672 9.90894749 20.19842292 10.63013494 21.45410156 11.35107422 C24.68120292 13.2050294 27.90596414 15.06301465 31.13006592 16.92218018 C32.90920925 17.94766871 34.68904049 18.97194872 36.46923828 19.99560547 C48.94731102 27.17081885 61.39634113 34.39388264 73.82128906 41.66064453 C81.52024834 46.15527427 89.25468246 50.58599899 97 55 C106.72115617 60.5400173 116.40894658 66.13374809 126.06689453 71.78344727 C133.32211736 76.02617279 140.59354142 80.2399661 147.875 84.4375 C148.94379395 85.05367188 150.01258789 85.66984375 151.11376953 86.3046875 C155.58072422 88.87906931 160.04836421 91.45225923 164.51660156 94.02441406 C166.87346291 95.38115258 169.23006924 96.73833221 171.58642578 98.09594727 C173.79006869 99.36546119 175.99413955 100.63423268 178.19873047 101.90209961 C180.19159048 103.05033012 182.17856794 104.2088484 184.15869141 105.37890625 C186.05143449 106.45880091 187.98314771 107.47308383 189.94677734 108.41796875 C196.57479494 111.77120005 196.57479494 111.77120005 197.77832031 115.24926758 C197.98633689 117.86510163 197.8805434 120.26452585 197.625 122.875 C197.57988281 123.75414062 197.53476563 124.63328125 197.48828125 125.5390625 C197.37107447 127.69566722 197.19169673 129.84873672 197 132 C193.45565573 130.65544302 190.19200807 129.08771656 186.88671875 127.234375 C185.89889404 126.68152832 184.91106934 126.12868164 183.89331055 125.55908203 C182.83539307 124.96208496 181.77747559 124.36508789 180.6875 123.75 C179.57737549 123.12593262 178.46725098 122.50186523 177.32348633 121.85888672 C168.91412229 117.11630308 160.56308564 112.27753894 152.23510742 107.39355469 C144.52145537 102.87329316 136.76834125 98.42523955 129 94 C119.27857016 88.46046897 109.59104696 82.86624813 99.93310547 77.21655273 C89.40915375 71.06233258 78.84619863 64.97630004 68.28222656 58.89111328 C61.77923729 55.14430021 55.27892422 51.3928437 48.77905273 47.640625 C42.05239926 43.75816116 35.3213574 39.8834849 28.58349609 36.02050781 C26.34770247 34.73143054 24.11737081 33.43282565 21.89306641 32.12402344 C15.32805523 28.26410045 15.32805523 28.26410045 8.48046875 24.94921875 C2.44385671 22.10422824 2.44385671 22.10422824 0 19 C-1.4452359 12.72370777 -0.74642724 6.32868222 0 0 Z " fill="#603941" transform="translate(32,277)"/>
<path d="M0 0 C7.03842772 3.3875442 13.76711143 7.12704526 20.4375 11.1875 C21.32115234 11.72052734 22.20480469 12.25355469 23.11523438 12.80273438 C26.44969146 14.81862288 29.7574659 16.8383106 33 19 C32.2678125 19.34289062 31.535625 19.68578125 30.78125 20.0390625 C19.55243436 25.46632339 8.88685396 31.80534997 -1.84765625 38.14160156 C-6.84763418 41.08923415 -11.86107388 44.01367664 -16.875 46.9375 C-17.85758789 47.51113281 -18.84017578 48.08476562 -19.85253906 48.67578125 C-28.34280832 53.62820853 -36.85487158 58.54259202 -45.38305664 63.42944336 C-50.74892356 66.51204894 -56.07841238 69.63845717 -61.35546875 72.87109375 C-62.36013184 73.48202881 -63.36479492 74.09296387 -64.39990234 74.72241211 C-66.2945917 75.87876024 -68.18211283 77.04696469 -70.06103516 78.22875977 C-70.90327637 78.74108154 -71.74551758 79.25340332 -72.61328125 79.78125 C-73.34329346 80.23564453 -74.07330566 80.69003906 -74.82543945 81.15820312 C-77.69850962 82.27040094 -79.08091617 81.9410786 -82 81 C-83.9253675 80.03911823 -85.8132366 79.00116607 -87.66796875 77.91015625 C-88.72564453 77.29076172 -89.78332031 76.67136719 -90.87304688 76.03320312 C-92.51370117 75.05770508 -92.51370117 75.05770508 -94.1875 74.0625 C-95.29287109 73.41603516 -96.39824219 72.76957031 -97.53710938 72.10351562 C-105.71058873 67.28941127 -105.71058873 67.28941127 -108 65 C-107.33806641 64.6189209 -106.67613281 64.2378418 -105.99414062 63.84521484 C-89.96584348 54.61487924 -73.96854814 45.33343193 -58 36 C-44.17767376 27.92100998 -30.33958828 19.87106262 -16.46337891 11.88500977 C-15.43003418 11.29002686 -14.39668945 10.69504395 -13.33203125 10.08203125 C-12.42171143 9.55843018 -11.5113916 9.0348291 -10.57348633 8.49536133 C-8.79543477 7.46219884 -7.0356035 6.39726305 -5.29174805 5.30737305 C-3 4 -3 4 -1 4 C-0.67 2.68 -0.34 1.36 0 0 Z " fill="#4AE4A3" transform="translate(168,187)"/>
<path d="M0 0 C0.83515137 0.43481689 1.67030273 0.86963379 2.53076172 1.31762695 C3.34899414 1.72988525 4.16722656 2.14214355 5.01025391 2.56689453 C7.77707398 4.0705439 10.53092661 5.59563732 13.28076172 7.13012695 C14.25142578 7.65155273 15.22208984 8.17297852 16.22216797 8.71020508 C17.14384766 9.22647461 18.06552734 9.74274414 19.01513672 10.2746582 C19.85786133 10.738479 20.70058594 11.2022998 21.56884766 11.68017578 C24.03933142 13.742089 24.23472041 15.17766412 24.53076172 18.31762695 C14.34644282 24.51896965 4.04396639 30.50521206 -6.29052734 36.45239258 C-16.70831535 42.44879871 -27.09278101 48.5010982 -37.47070312 54.56616211 C-40.54861427 56.36399101 -43.62785857 58.15951603 -46.70751953 59.9543457 C-47.73627197 60.55432373 -48.76502441 61.15430176 -49.82495117 61.77246094 C-51.85538471 62.95520496 -53.88709422 64.13576161 -55.92016602 65.31396484 C-60.51229126 67.980151 -65.07574435 70.67476742 -69.57861328 73.48950195 C-70.74759155 74.21024902 -70.74759155 74.21024902 -71.94018555 74.94555664 C-73.3721341 75.83194841 -74.79530884 76.73274724 -76.20727539 77.65063477 C-78.10595703 78.81762695 -78.10595703 78.81762695 -81.46923828 80.31762695 C-85.35754303 79.15581829 -88.72275361 77.10967676 -92.20751953 75.05981445 C-93.27421875 74.43461914 -94.34091797 73.80942383 -95.43994141 73.1652832 C-96.54273438 72.51430664 -97.64552734 71.86333008 -98.78173828 71.19262695 C-99.90386719 70.53391602 -101.02599609 69.87520508 -102.18212891 69.1965332 C-104.94632484 67.57330325 -107.7086046 65.94690541 -110.46923828 64.31762695 C-109.25339903 60.6701092 -108.46635831 60.46506952 -105.18408203 58.6730957 C-104.27343994 58.1685083 -103.36279785 57.6639209 -102.42456055 57.14404297 C-101.4286792 56.60320068 -100.43279785 56.0623584 -99.40673828 55.50512695 C-97.28869718 54.33218786 -95.17153601 53.15765867 -93.05517578 51.98168945 C-91.96172852 51.37615234 -90.86828125 50.77061523 -89.74169922 50.14672852 C-84.63263095 47.291078 -79.58091205 44.34003055 -74.53173828 41.38012695 C-73.53827393 40.7989209 -72.54480957 40.21771484 -71.52124023 39.61889648 C-69.50602409 38.43959896 -67.49113097 37.25974928 -65.4765625 36.0793457 C-60.51854068 33.17488999 -55.55682684 30.27677142 -50.59423828 27.38012695 C-49.61962646 26.81108643 -48.64501465 26.2420459 -47.64086914 25.65576172 C-42.27883401 22.52838313 -36.90984963 19.41336968 -31.53173828 16.3137207 C-30.66076004 15.81171898 -30.66076004 15.81171898 -29.77218628 15.29957581 C-26.97310408 13.68681736 -24.17311011 12.07566492 -21.37207031 10.46630859 C-20.35483887 9.88099365 -19.33760742 9.29567871 -18.28955078 8.69262695 C-17.31147461 8.13446289 -16.33339844 7.57629883 -15.32568359 7.0012207 C-13.41156464 5.87303572 -11.52469819 4.69737128 -9.66748047 3.4777832 C-8.79510742 2.90930664 -7.92273438 2.34083008 -7.02392578 1.75512695 C-6.26321777 1.23821289 -5.50250977 0.72129883 -4.71875 0.1887207 C-2.46923828 -0.68237305 -2.46923828 -0.68237305 0 0 Z " fill="#4AE4A3" transform="translate(311.46923828125,269.682373046875)"/>
<path d="M0 0 C3.07289232 1.56516478 5.60022879 3.19119149 8.27441406 5.33642578 C10.60617366 7.13127589 13.10253136 8.52922223 15.66040039 9.97509766 C17.81063612 11.19265493 19.93107773 12.45274483 22.05078125 13.72265625 C27.8023795 17.1493177 33.60427566 20.48769861 39.40625 23.828125 C40.5089624 24.46339111 41.6116748 25.09865723 42.74780273 25.75317383 C45.01567965 27.05959524 47.28366575 28.36582713 49.55175781 29.671875 C52.92895003 31.61769366 56.30460596 33.56614791 59.6796875 35.515625 C70.09909156 41.53362995 80.52346724 47.54262233 90.96875 53.515625 C91.85344971 54.02182373 92.73814941 54.52802246 93.6496582 55.04956055 C94.4562085 55.51015869 95.26275879 55.97075684 96.09375 56.4453125 C96.79757812 56.84733887 97.50140625 57.24936523 98.2265625 57.66357422 C99.45704684 58.35365246 100.70691018 59.00970509 101.96875 59.640625 C101.96875 60.300625 101.96875 60.960625 101.96875 61.640625 C98.34841171 63.81107792 94.71891832 65.96503062 91.08007812 68.10424805 C89.84371138 68.83416498 88.60995182 69.56851701 87.37890625 70.30737305 C85.6082462 71.3690551 83.82880324 72.4144013 82.046875 73.45703125 C80.97856445 74.09068604 79.91025391 74.72434082 78.80957031 75.37719727 C75.96875 76.640625 75.96875 76.640625 73.80664062 76.45166016 C70.4973752 74.9913281 67.36276216 73.23281973 64.21875 71.453125 C63.43290527 71.01242676 62.64706055 70.57172852 61.83740234 70.11767578 C54.36396042 65.90616292 46.96058556 61.5746581 39.55957031 57.23754883 C31.72647286 52.65104798 23.85593247 48.13312141 15.96875 43.640625 C5.89874233 37.90427643 -4.13551644 32.10995221 -14.13085938 26.24414062 C-19.72351608 22.9662334 -25.34823441 19.75942762 -31.03125 16.640625 C-24.61829125 9.88434624 -9.91377117 -2.30141116 0 0 Z " fill="#4AE4A3" transform="translate(318.03125,141.359375)"/>
<path d="M0 0 C2.54174805 1.25244141 2.54174805 1.25244141 5.26171875 2.8515625 C6.79602539 3.74584961 6.79602539 3.74584961 8.36132812 4.65820312 C9.45896484 5.30724609 10.55660156 5.95628906 11.6875 6.625 C12.84916922 7.30478918 14.01128693 7.98381248 15.17382812 8.66210938 C17.58817446 10.07158303 20.00055922 11.48432987 22.41162109 12.89941406 C27.92318625 16.13055546 33.46302109 19.31268183 39 22.5 C41.1641845 23.74848646 43.32824659 24.99718514 45.4921875 26.24609375 C49.85065388 28.76069436 54.21012191 31.27354661 58.5703125 33.78515625 C73.07491223 42.14258899 87.54958134 50.54924384 102 59 C97.89259136 63.45394996 92.59559077 66.37315132 87.5 69.5625 C86.46101563 70.26697266 85.42203125 70.97144531 84.3515625 71.69726562 C81.21163556 73.6332929 78.5749264 75.07646549 75 76 C70.68685544 74.90301951 67.57184397 72.58503312 64 70 C62.25922602 68.99767249 60.50517789 68.01802643 58.73828125 67.0625 C56.92892228 66.04302359 55.12035696 65.02213758 53.3125 64 C52.32338623 63.44094971 51.33427246 62.88189941 50.31518555 62.3059082 C42.2848189 57.75412189 34.3076628 53.11500474 26.34399414 48.44775391 C19.10839021 44.21293306 11.83681558 40.0441734 4.54977417 35.89883423 C-7.40267265 29.09946775 -19.25140674 22.14660972 -31 15 C-27.04552587 10.63090426 -21.68553108 8.14084392 -16.625 5.25 C-15.5834375 4.63511719 -14.541875 4.02023437 -13.46875 3.38671875 C-12.46070312 2.81050781 -11.45265625 2.23429687 -10.4140625 1.640625 C-9.4957666 1.10985352 -8.5774707 0.57908203 -7.63134766 0.03222656 C-4.47458419 -1.20611041 -3.18502198 -1.07843015 0 0 Z " fill="#4AE4A3" transform="translate(123,256)"/>
<path d="M0 0 C2.85452843 0.97726075 5.31381537 2.21274519 7.93994141 3.70068359 C8.94798828 4.27044922 9.95603516 4.84021484 10.99462891 5.42724609 C12.55697266 6.32443359 12.55697266 6.32443359 14.15087891 7.23974609 C15.20017578 7.83013672 16.24947266 8.42052734 17.33056641 9.02880859 C25.81293329 13.85723282 25.81293329 13.85723282 28.52587891 16.86474609 C27.81906982 17.26564453 27.11226074 17.66654297 26.3840332 18.07958984 C13.19869787 25.56616956 0.05045371 33.10094932 -12.97412109 40.86474609 C-23.30205206 47.01925748 -33.70148752 53.03183347 -44.15185547 58.97460938 C-53.14545166 64.0922246 -62.0917562 69.28431144 -71.01391602 74.52539062 C-71.93922119 75.0679248 -72.86452637 75.61045898 -73.81787109 76.16943359 C-74.62417969 76.64364746 -75.43048828 77.11786133 -76.26123047 77.60644531 C-78.30212735 78.76694647 -80.36344743 79.83775259 -82.47412109 80.86474609 C-82.69747014 76.1328007 -82.86027963 71.40394865 -82.96850586 66.66796875 C-83.01362993 65.05935212 -83.07495238 63.45110196 -83.15307617 61.84375 C-83.78266123 48.55250993 -83.78266123 48.55250993 -80.71850586 44.6003418 C-78.36853068 43.00830887 -76.10215112 41.92760731 -73.47412109 40.86474609 C-72.11732474 40.10878703 -70.76911535 39.33715254 -69.43115234 38.54833984 C-68.05122641 37.79672556 -66.66964637 37.04814199 -65.28662109 36.30224609 C-58.43839989 32.55226951 -51.68418407 28.66896348 -44.97412109 24.67724609 C-35.37675015 18.96886537 -25.72093694 13.36732855 -16.04052734 7.80151367 C-14.99638672 7.20105225 -13.95224609 6.60059082 -12.87646484 5.98193359 C-11.95341553 5.45196777 -11.03036621 4.92200195 -10.0793457 4.37597656 C-7.44261328 2.89420223 -7.44261328 2.89420223 -4.94897461 1.10742188 C-2.47412109 -0.13525391 -2.47412109 -0.13525391 0 0 Z " fill="#4AE4A3" transform="translate(423.47412109375,204.13525390625)"/>
<path d="M0 0 C-2.80227888 2.17535828 -5.65926331 4.04796907 -8.7265625 5.828125 C-9.66218018 6.37259277 -10.59779785 6.91706055 -11.56176758 7.47802734 C-13.07806763 8.35515381 -13.07806763 8.35515381 -14.625 9.25 C-16.217677 10.17546631 -16.217677 10.17546631 -17.8425293 11.11962891 C-24.42173897 14.93906902 -31.01357199 18.73642928 -37.60742188 22.53051758 C-48.77813768 28.95912497 -59.89664231 35.46783872 -70.97509766 42.05419922 C-82.27737704 48.77067021 -93.63258838 55.39442197 -105 62 C-100.25338199 66.13317797 -94.92263265 69.16856649 -89.5 72.3125 C-88.56285156 72.87517578 -87.62570313 73.43785156 -86.66015625 74.01757812 C-85.75136719 74.54416016 -84.84257813 75.07074219 -83.90625 75.61328125 C-83.08447266 76.09579346 -82.26269531 76.57830566 -81.41601562 77.07543945 C-78.39408765 78.23187046 -77.05405119 78.01202815 -74 77 C-71.32644182 75.67543866 -71.32644182 75.67543866 -68.58984375 73.96484375 C-67.53216797 73.32869141 -66.47449219 72.69253906 -65.38476562 72.03710938 C-64.82442627 71.69574951 -64.26408691 71.35438965 -63.68676758 71.00268555 C-60.66385761 69.16193799 -57.62613548 67.3459028 -54.58984375 65.52734375 C-53.64750381 64.9618129 -53.64750381 64.9618129 -52.68612671 64.38485718 C-46.18038903 60.48960875 -39.59600413 56.74008851 -33 53 C-23.6687139 47.70258843 -14.40503775 42.30538657 -5.1875 36.8125 C3.51463679 31.64067923 12.22581087 26.48635838 21 21.4375 C21.96784424 20.87071533 22.93568848 20.30393066 23.93286133 19.7199707 C24.82126709 19.21296631 25.70967285 18.70596191 26.625 18.18359375 C27.40101563 17.73556396 28.17703125 17.28753418 28.9765625 16.82592773 C31 16 31 16 34 17 C28.19036823 21.11515584 22.12049974 24.67544155 15.90429688 28.12988281 C9.72408999 31.57234194 3.6067785 35.11658715 -2.5 38.6875 C-3.50595215 39.27571533 -4.5119043 39.86393066 -5.54833984 40.4699707 C-7.62825845 41.68672801 -9.70800859 42.90377332 -11.78759766 44.12109375 C-15.08972846 46.0524814 -18.39409747 47.97998475 -21.69921875 49.90625 C-22.78589844 50.53958252 -23.87257813 51.17291504 -24.9921875 51.82543945 C-27.0767641 53.04022137 -29.16139689 54.25490688 -31.24609375 55.46948242 C-32.1896875 56.01967041 -33.13328125 56.5698584 -34.10546875 57.13671875 C-34.93199951 57.61842529 -35.75853027 58.10013184 -36.61010742 58.59643555 C-39.08294516 60.04871302 -41.54320004 61.52078062 -44 63 C-35.43486473 68.40286826 -26.71787272 73.49448613 -17.90185547 78.47631836 C-13.70885646 80.85235113 -9.54552213 83.2522193 -5.45703125 85.8046875 C-4.77237793 86.23015869 -4.08772461 86.65562988 -3.38232422 87.09399414 C-2.12062926 87.88449371 -0.86526005 88.68521599 0.38232422 89.49780273 C3.41148514 91.5044532 3.41148514 91.5044532 6.90380859 91.73925781 C9.26165941 90.90772133 11.29746952 89.85590499 13.47265625 88.62109375 C14.80067261 87.87013428 14.80067261 87.87013428 16.15551758 87.10400391 C17.11482178 86.55405762 18.07412598 86.00411133 19.0625 85.4375 C20.57976685 84.57390869 20.57976685 84.57390869 22.12768555 83.69287109 C31.03751398 78.59940445 39.86220691 73.36502143 48.68383789 68.12084961 C56.36254503 63.55797967 64.04617214 59.00426975 71.76596069 54.51116943 C73.46809714 53.5186035 75.16634136 52.51937244 76.86450195 51.52001953 C77.88890381 50.92560059 78.91330566 50.33118164 79.96875 49.71875 C80.87044922 49.19216797 81.77214844 48.66558594 82.70117188 48.12304688 C85 47 85 47 88 47 C88 47.66 88 48.32 88 49 C87.3922876 49.34144043 86.7845752 49.68288086 86.15844727 50.03466797 C75.62963392 55.95508011 65.1106544 61.88439067 54.71826172 68.04174805 C46.99393672 72.61177552 39.21266043 77.08277351 31.43432617 81.56005859 C24.27498609 85.68211958 17.13141649 89.82981931 10 94 C13.14670075 96.48031842 16.43299892 98.46855345 19.91796875 100.44140625 C20.48835876 100.76572632 21.05874878 101.09004639 21.64642334 101.42419434 C23.49191654 102.47302451 25.33950276 103.51808893 27.1875 104.5625 C29.72497206 105.9982184 32.26152011 107.43554598 34.796875 108.875 C35.42025253 109.22885269 36.04363007 109.58270538 36.68589783 109.94728088 C40.31092789 112.01306743 43.89742832 114.12855796 47.453125 116.3125 C48.2263208 116.78486084 48.9995166 117.25722168 49.79614258 117.74389648 C51.18378586 118.59837846 52.56439824 119.46442853 53.9362793 120.34399414 C57.41499397 122.50638495 57.41499397 122.50638495 61.39550781 122.76220703 C64.20972257 121.9386245 66.37629936 120.83158078 68.89453125 119.33203125 C69.83731934 118.77588135 70.78010742 118.21973145 71.75146484 117.64672852 C72.76160645 117.04143311 73.77174805 116.4361377 74.8125 115.8125 C76.98818433 114.52587775 79.1639683 113.23942399 81.33984375 111.953125 C82.44956543 111.29376953 83.55928711 110.63441406 84.70263672 109.95507812 C89.74516718 106.96525257 94.8093776 104.01297917 99.875 101.0625 C100.84381104 100.49805176 101.81262207 99.93360352 102.81079102 99.35205078 C104.81279669 98.18586894 106.81499713 97.02002142 108.81738281 95.85449219 C111.0521965 94.55227949 113.28598919 93.24843591 115.51855469 91.94238281 C118.5124421 90.19114162 121.50922046 88.4449411 124.50787354 86.70187378 C126.21536834 85.70766469 127.91997253 84.70849643 129.62451172 83.70922852 C131.17936279 82.80708618 131.17936279 82.80708618 132.765625 81.88671875 C133.68118164 81.35264404 134.59673828 80.81856934 135.54003906 80.26831055 C137.73328757 79.13751201 139.58954357 78.46049146 142 78 C142 78.66 142 79.32 142 80 C141.33806641 80.3810791 140.67613281 80.7621582 139.99414062 81.15478516 C126.98790513 88.64478347 113.99536406 96.15653105 101.03833008 103.73144531 C93.77185043 107.97601478 86.48278759 112.18018222 79.1875 116.375 C68.61257061 122.45690847 58.10496554 128.64655345 47.62963867 134.89794922 C46.55818604 135.53619629 45.4867334 136.17444336 44.3828125 136.83203125 C43.43809082 137.39639893 42.49336914 137.9607666 41.52001953 138.54223633 C39.37762315 139.78155514 37.22851178 140.92564409 35 142 C35 142.66 35 143.32 35 144 C35.50337891 144.27674561 36.00675781 144.55349121 36.52539062 144.83862305 C38.85155786 146.11924101 41.17578057 147.40335055 43.5 148.6875 C44.29148438 149.12255859 45.08296875 149.55761719 45.8984375 150.00585938 C46.68476563 150.44091797 47.47109375 150.87597656 48.28125 151.32421875 C49.07015625 151.75911621 49.8590625 152.19401367 50.671875 152.64208984 C53.60350642 154.35200322 56.36011129 156.28117423 59.09570312 158.28833008 C61.07294861 159.24411527 61.07294861 159.24411527 63.44677734 158.2824707 C65.85300676 157.07383396 68.22559773 155.84755237 70.5703125 154.5234375 C71.45227295 154.02610107 72.3342334 153.52876465 73.24291992 153.01635742 C74.19400635 152.47470947 75.14509277 151.93306152 76.125 151.375 C77.13344971 150.80305908 78.14189941 150.23111816 79.1809082 149.6418457 C88.0485382 144.58946143 96.82257056 139.38451285 105.58959961 134.16015625 C114.31471352 128.96757226 123.10761432 123.90238054 131.93283081 118.88217163 C144.0091344 112.01247152 156.01482077 105.02740104 168 98 C168.99 98.99 169.98 99.98 171 101 C168.35947128 102.52338195 165.71893536 104.04675141 163.07836914 105.57006836 C160.74149877 106.9183327 158.40473141 108.26677387 156.06811523 109.61547852 C150.19277229 113.00641441 144.31587305 116.39454061 138.43359375 119.7734375 C127.45165687 126.08653808 116.51100512 132.46025584 105.625 138.9375 C102.26141174 140.93002562 98.89652988 142.92033864 95.53076172 144.90917969 C93.07820974 146.35949059 90.63005242 147.81693863 88.18408203 149.27832031 C84.98016759 151.19108445 81.76626336 153.08601633 78.54534912 154.97000122 C77.31790198 155.6917953 76.09389007 156.41946692 74.87359619 157.15328979 C73.17890813 158.17117585 71.47054408 159.16618661 69.76171875 160.16015625 C68.79194092 160.73386963 67.82216309 161.30758301 66.82299805 161.89868164 C63.3369825 163.25865882 61.57224625 163.02051498 58 162 C55.52832031 160.83935547 55.52832031 160.83935547 53.078125 159.3671875 C51.68424561 158.54069702 51.68424561 158.54069702 50.26220703 157.69750977 C49.26817871 157.09608154 48.27415039 156.49465332 47.25 155.875 C45.08639879 154.58906731 42.92231998 153.3039379 40.7578125 152.01953125 C39.64180664 151.3538916 38.52580078 150.68825195 37.37597656 150.00244141 C31.98746899 146.80627861 26.55647405 143.68489786 21.125 140.5625 C18.94001564 139.30353904 16.75512028 138.04442362 14.5703125 136.78515625 C12.94270996 135.84760498 12.94270996 135.84760498 11.28222656 134.89111328 C5.85340058 131.76319852 0.42680719 128.63141552 -5 125.5 C-7.16665583 124.24998121 -9.3333225 122.99998122 -11.5 121.75 C-24.5 114.25 -37.5 106.75 -50.5 99.25 C-51.5732251 98.63084717 -52.6464502 98.01169434 -53.75219727 97.3737793 C-55.91159395 96.1279423 -58.07093669 94.88201182 -60.23022461 93.63598633 C-65.75767597 90.44651047 -71.28615121 87.25883115 -76.81640625 84.07421875 C-88.91186046 77.10677118 -100.98785531 70.11025277 -113 63 C-110.60875126 60.35416403 -108.06354927 58.74168745 -104.96875 56.98828125 C-103.94475098 56.40377197 -102.92075195 55.8192627 -101.86572266 55.21704102 C-100.75503418 54.58854248 -99.6443457 53.96004395 -98.5 53.3125 C-96.12073297 51.95602637 -93.74380242 50.59548886 -91.3671875 49.234375 C-90.75612152 48.88484268 -90.14505554 48.53531036 -89.51547241 48.17518616 C-83.17627867 44.54213729 -76.89998669 40.80514237 -70.625 37.0625 C-60.25548899 30.88922305 -49.82168493 24.84296662 -39.32055664 18.89697266 C-33.53121799 15.6129308 -27.77622703 12.28678412 -22.078125 8.84765625 C-20.43106567 7.86079834 -20.43106567 7.86079834 -18.75073242 6.85400391 C-16.67582053 5.60673701 -14.6078303 4.34785789 -12.5480957 3.07568359 C-11.62601318 2.52348145 -10.70393066 1.9712793 -9.75390625 1.40234375 C-8.95283447 0.91241943 -8.1517627 0.42249512 -7.32641602 -0.08227539 C-4.47647549 -1.20651995 -2.89509346 -0.85444241 0 0 Z M-54.76171875 68.0625 C-55.87998047 68.69414062 -56.99824219 69.32578125 -58.15039062 69.9765625 C-59.32950568 70.65090425 -60.50854113 71.32538522 -61.6875 72 C-62.87792363 72.67506421 -64.06867521 73.34955047 -65.25976562 74.0234375 C-68.17645898 75.67662402 -71.08965063 77.33567853 -74 79 C-74 79.99 -74 80.98 -74 82 C-73.42894531 82.32049316 -72.85789063 82.64098633 -72.26953125 82.97119141 C-60.23307472 89.73332626 -48.25006938 96.57642234 -36.33789062 103.55517578 C-28.0028805 108.43155872 -19.62364512 113.2278034 -11.23251343 118.0065918 C-1.65969133 123.45961843 7.86986314 128.98169718 17.36328125 134.57226562 C18.28238281 135.11173828 19.20148438 135.65121094 20.1484375 136.20703125 C20.94427246 136.6760083 21.74010742 137.14498535 22.56005859 137.62817383 C23.36523926 138.08087646 24.17041992 138.5335791 25 139 C25.96139893 139.61278809 26.92279785 140.22557617 27.91333008 140.85693359 C30.98110555 142.35749852 30.98110555 142.35749852 34.05200195 140.99536133 C35.10347412 140.3639624 36.15494629 139.73256348 37.23828125 139.08203125 C37.80451706 138.74958908 38.37075287 138.41714691 38.95414734 138.07463074 C40.75452223 137.00928491 42.53237568 135.91127385 44.3125 134.8125 C45.52805474 134.09100213 46.7448417 133.37157599 47.96289062 132.65429688 C53.82158732 129.6655135 53.82158732 129.6655135 58 125 C57.34854004 124.62415771 56.69708008 124.24831543 56.02587891 123.86108398 C-0.5 91.25 -0.5 91.25 -3.75561523 89.37133789 C-5.90307609 88.13269785 -8.05101857 86.8948924 -10.19946289 85.65795898 C-15.29715774 82.72167745 -20.38934229 79.77682582 -25.4649353 76.80252075 C-27.87323876 75.39193333 -30.2842803 73.98606439 -32.69555664 72.58056641 C-34.40455557 71.58175413 -36.1095486 70.5760977 -37.81445312 69.5703125 C-38.84376953 68.97089844 -39.87308594 68.37148438 -40.93359375 67.75390625 C-42.2956897 66.95448608 -42.2956897 66.95448608 -43.68530273 66.13891602 C-48.23023642 63.90264182 -50.65154108 65.72574924 -54.76171875 68.0625 Z " fill="#EDFCF5" transform="translate(167,190)"/>
<path d="M0 0 C1.57373278 0.8205546 3.13201455 1.67124431 4.67578125 2.546875 C5.57321045 3.05452393 6.47063965 3.56217285 7.39526367 4.08520508 C8.35795166 4.6345874 9.32063965 5.18396973 10.3125 5.75 C11.32868408 6.32709717 12.34486816 6.90419434 13.3918457 7.4987793 C21.51704339 12.12525525 29.5956416 16.82982144 37.66333008 21.55566406 C45.41246774 26.08985993 53.19917869 30.55564523 61 35 C70.7227641 40.54049995 80.41140217 46.13603551 90.07128906 51.78564453 C105.30714824 60.69380897 120.60242984 69.49894237 135.93359375 78.24194336 C140.58093852 80.89250868 145.22308369 83.5521394 149.86572266 86.2109375 C152.75268963 87.8588339 155.64677288 89.4934002 158.54296875 91.125 C160.11226492 92.02033267 161.68129956 92.91612398 163.25 93.8125 C163.95326416 94.20284424 164.65652832 94.59318848 165.38110352 94.99536133 C167.265625 96.08203125 167.265625 96.08203125 170 98 C170 98.99 170 99.98 170 101 C169.42894531 101.32049316 168.85789062 101.64098633 168.26953125 101.97119141 C154.10414573 109.92936805 140.02580708 118.02437957 126.00732422 126.23828125 C121.04930245 129.14273693 116.08760376 132.04088166 111.125 134.9375 C110.1453125 135.50944092 109.165625 136.08138184 108.15625 136.6706543 C99.54592724 141.6921732 90.91235126 146.67298212 82.27197266 151.64257812 C77.38258498 154.45779297 72.50159369 157.28406165 67.65234375 160.16796875 C66.85691162 160.64073242 66.06147949 161.11349609 65.24194336 161.60058594 C63.79114478 162.46572511 62.34257863 163.33462372 60.89672852 164.20800781 C56.21791331 167 56.21791331 167 54 167 C54.21850586 165.18505859 54.21850586 165.18505859 55 163 C56.93579102 161.48291016 56.93579102 161.48291016 59.50390625 160.0390625 C60.93742432 159.2193396 60.93742432 159.2193396 62.39990234 158.38305664 C63.44355957 157.80289795 64.4872168 157.22273926 65.5625 156.625 C67.77494252 155.36624204 69.98717653 154.10711753 72.19921875 152.84765625 C73.33407715 152.20715332 74.46893555 151.56665039 75.63818359 150.90673828 C80.74685076 148.00922989 85.80913121 145.03396914 90.875 142.0625 C99.23398629 137.18042998 107.61223063 132.33242376 116 127.5 C124.6786637 122.49964131 133.34709886 117.48232501 142 112.4375 C142.96035156 111.87804687 143.92070312 111.31859375 144.91015625 110.7421875 C150.9675686 107.20656707 156.99417778 103.62254651 163 100 C159.04552587 95.63090426 153.68553108 93.14084392 148.625 90.25 C147.06265625 89.32767578 147.06265625 89.32767578 145.46875 88.38671875 C143.95667969 87.52240234 143.95667969 87.52240234 142.4140625 86.640625 C141.03661865 85.84446777 141.03661865 85.84446777 139.63134766 85.03222656 C136.48640721 83.79852753 135.17286624 83.93137085 132 85 C129.58849653 86.14748881 129.58849653 86.14748881 127.17578125 87.6328125 C126.24258057 88.18420898 125.30937988 88.73560547 124.34790039 89.30371094 C122.8453772 90.20524902 122.8453772 90.20524902 121.3125 91.125 C119.15148625 92.40439707 116.99001161 93.68301591 114.828125 94.9609375 C113.14686523 95.95818848 113.14686523 95.95818848 111.43164062 96.97558594 C105.83397274 100.27779582 100.1975081 103.51206569 94.5625 106.75 C87.20673418 110.98363981 79.86652157 115.24018872 72.5625 119.5625 C66.44812591 123.18055113 60.2750672 126.66594702 54 130 C54 129.01 54 128.02 54 127 C55.82226562 125.59643555 55.82226562 125.59643555 58.40625 124.13671875 C59.36724609 123.58580566 60.32824219 123.03489258 61.31835938 122.46728516 C62.36830078 121.87995605 63.41824219 121.29262695 64.5 120.6875 C66.68769228 119.43913899 68.87518622 118.19043033 71.0625 116.94140625 C72.19945312 116.29703613 73.33640625 115.65266602 74.5078125 114.98876953 C80.20300579 111.75451393 85.84781203 108.43364996 91.5 105.125 C93.53104648 103.93975534 95.56227766 102.7548271 97.59375 101.5703125 C98.87282227 100.82418701 98.87282227 100.82418701 100.17773438 100.06298828 C100.77908203 99.71220215 101.38042969 99.36141602 102 99 C95.53054903 94.53128664 88.87127634 90.56589327 82 86.75 C70.48602016 80.3284741 70.48602016 80.3284741 64.86328125 76.8984375 C64.08919922 76.42825195 63.31511719 75.95806641 62.51757812 75.47363281 C61.0815012 74.59532358 59.65142413 73.7071034 58.22851562 72.80761719 C54.84347239 70.57334097 54.84347239 70.57334097 50.9597168 70.30761719 C47.26654793 71.61244177 44.00890106 73.82161667 40.65625 75.8203125 C38 77 38 77 34 76 C40.93 72.04 40.93 72.04 48 68 C44.44172277 65.15337822 41.54117419 63.04284462 37.640625 60.8984375 C36.61485352 60.33020264 35.58908203 59.76196777 34.53222656 59.17651367 C33.4490918 58.58201416 32.36595703 57.98751465 31.25 57.375 C22.81154975 52.70987532 14.42409453 47.99480889 6.21582031 42.93310547 C1.41830853 39.97065586 1.41830853 39.97065586 -4 39 C-7.06340791 40.43817766 -7.06340791 40.43817766 -10.0625 42.5 C-15.49190848 46.06026786 -15.49190848 46.06026786 -18.37109375 45.71875 C-18.90863281 45.4815625 -19.44617188 45.244375 -20 45 C-9.34827526 38.5140488 1.43296695 32.26014902 12.24951172 26.05444336 C13.3376416 25.42932861 14.42577148 24.80421387 15.546875 24.16015625 C17.01398926 23.31916382 17.01398926 23.31916382 18.51074219 22.46118164 C20.37621836 21.36615664 22.20017672 20.19988218 24 19 C20.31832812 16.70048401 16.62204923 14.4271084 12.91259766 12.17285156 C11.00743967 11.00456219 9.11934995 9.81156203 7.23046875 8.6171875 C6.0085021 7.86866472 4.78586456 7.12123587 3.5625 6.375 C2.45003906 5.68148437 1.33757812 4.98796875 0.19140625 4.2734375 C-2.86651647 2.74247421 -2.86651647 2.74247421 -5.765625 3.4140625 C-10.43318521 5.7027454 -14.8657924 8.31106061 -19.3125 11 C-20.27784668 11.57508301 -21.24319336 12.15016602 -22.23779297 12.74267578 C-26.87114653 15.50435313 -31.48604783 18.29379733 -36.08203125 21.1171875 C-36.85313232 21.58511719 -37.6242334 22.05304688 -38.41870117 22.53515625 C-39.85903004 23.40984086 -41.29315609 24.2948459 -42.7199707 25.19140625 C-47.50986073 28.08831826 -47.50986073 28.08831826 -50.20849609 27.60205078 C-50.79969238 27.40337402 -51.39088867 27.20469727 -52 27 C-49.30102123 24.11243279 -46.74181189 22.0860217 -43.28125 20.1875 C-42.35812012 19.67453369 -41.43499023 19.16156738 -40.48388672 18.63305664 C-39.4992041 18.09414795 -38.51452148 17.55523926 -37.5 17 C-31.32415063 13.58930257 -25.18563331 10.1651795 -19.2109375 6.41015625 C-18.31052734 5.84748047 -17.41011719 5.28480469 -16.48242188 4.70507812 C-14.77380267 3.62871202 -13.07411785 2.53800071 -11.38476562 1.43164062 C-10.61583984 0.95017578 -9.84691406 0.46871094 -9.0546875 -0.02734375 C-8.38937012 -0.45781006 -7.72405273 -0.88827637 -7.03857422 -1.33178711 C-4.09153714 -2.29777998 -2.71840725 -1.37318909 0 0 Z M15.87109375 26.29882812 C14.01088094 27.36874175 12.1462116 28.43057881 10.28125 29.4921875 C9.10388279 30.16877708 7.92679012 30.84584469 6.75 31.5234375 C5.13351562 32.450354 5.13351562 32.450354 3.484375 33.39599609 C0.90732338 34.76131264 0.90732338 34.76131264 0 37 C0.63164062 37.35078613 1.26328125 37.70157227 1.9140625 38.06298828 C15.66702135 45.70985139 29.33369051 53.48090039 42.91015625 61.4375 C49.21570496 65.13213355 55.54299604 68.78843597 61.875 72.4375 C62.93847656 73.05061035 64.00195312 73.6637207 65.09765625 74.29541016 C70.22206514 77.248891 75.34769341 80.20024939 80.47399902 83.1504364 C82.88217475 84.53659738 85.28990699 85.92352749 87.6975708 87.31057739 C89.40258234 88.29239298 91.1082667 89.27303984 92.81396484 90.25366211 C94.35818115 91.14323608 94.35818115 91.14323608 95.93359375 92.05078125 C96.84165771 92.57325439 97.74972168 93.09572754 98.68530273 93.6340332 C100.49126201 94.69977966 102.25521129 95.83680752 104 97 C110.44307178 96.49679332 115.88540887 92.26292955 121.3125 89.0625 C122.43462891 88.41603516 123.55675781 87.76957031 124.71289062 87.10351562 C125.77314453 86.48283203 126.83339844 85.86214844 127.92578125 85.22265625 C128.89942627 84.65297119 129.87307129 84.08328613 130.8762207 83.49633789 C131.57706787 83.00254639 132.27791504 82.50875488 133 82 C133 81.34 133 80.68 133 80 C132.42258057 79.68885254 131.84516113 79.37770508 131.25024414 79.05712891 C120.99099945 73.51955502 110.76359814 67.95355387 100.74267578 61.99365234 C94.34104312 58.1872359 87.89272351 54.46470921 81.4375 50.75 C72.73216329 45.73843275 64.04502318 40.69739976 55.375 35.625 C48.46054647 31.5839388 41.53635273 27.56285642 34.5625 23.625 C33.89976074 23.24939941 33.23702148 22.87379883 32.55419922 22.48681641 C25.63818892 18.60582229 22.27532579 22.60928641 15.87109375 26.29882812 Z " fill="#EDFCF6" transform="translate(287,121)"/>
<path d="M0 0 C2.38989258 1.17651367 2.38989258 1.17651367 4.89453125 2.66796875 C5.83941406 3.22532715 6.78429687 3.78268555 7.7578125 4.35693359 C8.76585937 4.96102051 9.77390625 5.56510742 10.8125 6.1875 C12.95429934 7.45464303 15.09623056 8.72156317 17.23828125 9.98828125 C18.34381348 10.64521973 19.4493457 11.3021582 20.58837891 11.97900391 C26.20794232 15.30795381 31.85498951 18.58941586 37.5 21.875 C39.53137997 23.059673 41.56264212 24.24454806 43.59375 25.4296875 C44.44646484 25.92710449 45.29917969 26.42452148 46.17773438 26.93701172 C46.77908203 27.28779785 47.38042969 27.63858398 48 28 C45.1688816 31.059541 42.42966878 33.07935212 38.7734375 35.06640625 C37.74935791 35.62956543 36.72527832 36.19272461 35.67016602 36.77294922 C34.58276123 37.36350098 33.49535645 37.95405273 32.375 38.5625 C23.53873246 43.42235105 14.83468925 48.41293807 6.30810547 53.79907227 C1.19852361 57 1.19852361 57 -1 57 C-1.33 42.48 -1.66 27.96 -2 13 C-2.99 13 -3.98 13 -5 13 C-5.66 13.66 -6.32 14.32 -7 15 C-11.29 12.69 -15.58 10.38 -20 8 C-17.07125804 6.04750536 -14.12370413 4.15584306 -11.125 2.3125 C-10.09632813 1.66925781 -9.06765625 1.02601563 -8.0078125 0.36328125 C-4.51825783 -1.21834807 -3.5901775 -1.03121763 0 0 Z " fill="#4AE3A3" transform="translate(342,191)"/>
<path d="M0 0 C3.18057796 1.30656389 6.03012285 2.80324123 8.98876953 4.55297852 C10.05224609 5.17817383 11.11572266 5.80336914 12.21142578 6.44750977 C13.30583984 7.09848633 14.40025391 7.74946289 15.52783203 8.42016602 C16.64544922 9.07887695 17.76306641 9.73758789 18.91455078 10.41625977 C21.66366928 12.03753478 24.40959485 13.66396615 27.15283203 15.29516602 C24.10850365 18.62731012 20.98514238 20.73231747 17.05908203 22.93969727 C16.47171265 23.27257248 15.88434326 23.60544769 15.2791748 23.94841003 C13.40713729 25.00767797 11.53022417 26.05792317 9.65283203 27.10766602 C7.81208656 28.14478434 5.97239735 29.18375078 4.13305664 30.22335815 C2.92039848 30.90737543 1.70637113 31.58897119 0.4909668 32.26809692 C-2.47057342 33.92707074 -5.40025331 35.61825255 -8.28857422 37.40209961 C-9.34947266 38.05130371 -10.41037109 38.70050781 -11.50341797 39.36938477 C-12.43992187 39.95679443 -13.37642578 40.5442041 -14.34130859 41.14941406 C-16.84716797 42.29516602 -16.84716797 42.29516602 -18.81494141 42.17553711 C-21.55192492 40.98986165 -24.11034259 39.60530692 -26.70654297 38.13500977 C-28.37910156 37.19238281 -28.37910156 37.19238281 -30.08544922 36.23071289 C-31.2560804 35.56479969 -32.42665258 34.89878274 -33.59716797 34.23266602 C-34.7831205 33.56230983 -35.9693159 32.89238313 -37.15576172 32.22290039 C-40.05531584 30.58453445 -42.95231148 28.9418136 -45.84716797 27.29516602 C-45.84716797 26.30516602 -45.84716797 25.31516602 -45.84716797 24.29516602 C-44.79928101 23.69212646 -44.79928101 23.69212646 -43.73022461 23.0769043 C-41.64092454 21.87414553 -39.55201018 20.67071664 -37.46337891 19.46679688 C-35.08695518 18.09720726 -32.70846912 16.73129185 -30.32861328 15.36767578 C-25.02010525 12.32044972 -19.73066449 9.25871427 -14.54638672 6.00219727 C-13.78253662 5.52830566 -13.01868652 5.05441406 -12.23168945 4.56616211 C-10.84415888 3.69933242 -9.46658278 2.81628695 -8.10131836 1.91479492 C-5.07096735 0.03695393 -3.54003508 -0.87635751 0 0 Z " fill="#4AE3A3" transform="translate(284.84716796875,123.704833984375)"/>
<path d="M0 0 C11.2544764 5.6272382 11.2544764 5.6272382 15.69921875 8.234375 C16.67439453 8.80462402 17.64957031 9.37487305 18.65429688 9.96240234 C20.15573242 10.84726318 20.15573242 10.84726318 21.6875 11.75 C22.73099609 12.36182129 23.77449219 12.97364258 24.84960938 13.60400391 C32.93141551 18.35000587 40.98380572 23.14403616 49 28 C47.55870836 31.64759903 45.96159586 32.92550395 42.546875 34.77734375 C41.62737061 35.28499268 40.70786621 35.7926416 39.76049805 36.31567383 C38.76703369 36.85087646 37.77356934 37.3860791 36.75 37.9375 C34.66677095 39.08376329 32.58477227 40.23226506 30.50390625 41.3828125 C28.89733154 42.26888184 28.89733154 42.26888184 27.25830078 43.17285156 C21.03847227 46.66072782 14.93634966 50.34990804 8.83300781 54.03686523 C7.52928223 54.81719116 7.52928223 54.81719116 6.19921875 55.61328125 C5.43440186 56.07516846 4.66958496 56.53705566 3.8815918 57.01293945 C2 58 2 58 0 58 C0 38.86 0 19.72 0 0 Z " fill="#EAF2FE" transform="translate(168,115)"/>
<path d="M0 0 C0.33 0 0.66 0 1 0 C1 5.28 1 10.56 1 16 C2.98 16.66 4.96 17.32 7 18 C8.66763046 18.85967635 10.30906879 19.77188076 11.921875 20.73046875 C12.85128906 21.27832031 13.78070313 21.82617188 14.73828125 22.390625 C16.22908203 23.28007812 16.22908203 23.28007812 17.75 24.1875 C19.91105633 25.46292098 22.072529 26.73763673 24.234375 28.01171875 C25.35005859 28.67091309 26.46574219 29.33010742 27.61523438 30.00927734 C33.05592025 33.20917294 38.52821474 36.35368231 44 39.5 C52.34837951 44.30782754 60.68243649 49.13905955 69 54 C81.63743454 61.38414893 94.31675298 68.69490135 107 76 C142.50003629 96.44675681 142.50003629 96.44675681 154.17871094 103.375 C156.21304666 104.54673231 158.27813785 105.66562715 160.36035156 106.75 C161.46088867 107.3378125 162.56142578 107.925625 163.6953125 108.53125 C165.21535889 109.31338867 165.21535889 109.31338867 166.76611328 110.11132812 C169 112 169 112 169.33154297 115.21679688 C169.1674292 116.59448242 169.1674292 116.59448242 169 118 C161.79969513 114.52284627 154.88089269 110.69350098 148 106.625 C145.87535345 105.37700224 143.75034064 104.12962786 141.625 102.8828125 C140.53445313 102.2424707 139.44390625 101.60212891 138.3203125 100.94238281 C132.8952887 97.76874389 127.44746586 94.6349087 122 91.5 C112.66113375 86.12126832 103.34359421 80.70740401 94.0390625 75.26953125 C86.70716236 70.98777854 79.35729193 66.73795309 72 62.5 C58.55806714 54.75595202 45.15834027 46.94065753 31.76708984 39.109375 C29.58664388 37.83434375 27.40598189 36.55968186 25.22509766 35.28540039 C23.18390627 34.09273576 21.14318164 32.89927178 19.10302734 31.70483398 C16.4061652 30.1292889 13.70338553 28.56431574 11 27 C10.13616699 26.48969238 9.27233398 25.97938477 8.38232422 25.45361328 C7.17020264 24.75147705 7.17020264 24.75147705 5.93359375 24.03515625 C5.22130615 23.61758057 4.50901855 23.20000488 3.77514648 22.76977539 C3.18934814 22.51574951 2.6035498 22.26172363 2 22 C1.34 22.33 0.68 22.66 0 23 C-1.0625 21.25 -1.0625 21.25 -2 19 C-1.67259583 17.66519837 -1.3375114 16.33228186 -1 15 C-0.77711499 12.41343327 -0.58685615 9.84047222 -0.4375 7.25 C-0.39431641 6.55261719 -0.35113281 5.85523438 -0.30664062 5.13671875 C-0.20110404 3.42468078 -0.1001009 1.71236439 0 0 Z " fill="#515E64" transform="translate(167,166)"/>
<path d="M0 0 C2.00556029 0.98967361 3.97337229 2.05748173 5.91015625 3.17578125 C6.47115524 3.49741745 7.03215424 3.81905365 7.6101532 4.1504364 C9.43173026 5.19747846 11.24716528 6.25467827 13.0625 7.3125 C14.31583713 8.03622931 15.56941971 8.75953373 16.82324219 9.48242188 C27.28955342 15.53073677 37.67246335 21.71781181 48 28 C45.57489083 30.49529479 43.13658237 32.38360686 40.1875 34.25 C39.35605469 34.79140625 38.52460938 35.3328125 37.66796875 35.890625 C34.26517394 37.30554993 32.5610395 36.83338773 29 36 C26.49658203 34.82348633 26.49658203 34.82348633 24.0078125 33.33203125 C23.06615234 32.77467285 22.12449219 32.21731445 21.15429688 31.64306641 C20.15462891 31.03897949 19.15496094 30.43489258 18.125 29.8125 C15.99235519 28.54529066 13.85953724 27.27837267 11.7265625 26.01171875 C10.62731445 25.35478027 9.52806641 24.6978418 8.39550781 24.02099609 C2.78676215 20.68268745 -2.85794084 17.40664052 -8.5 14.125 C-10.53141951 12.9403948 -12.56268539 11.75552609 -14.59375 10.5703125 C-15.44646484 10.07289551 -16.29917969 9.57547852 -17.17773438 9.06298828 C-17.77908203 8.71220215 -18.38042969 8.36141602 -19 8 C-15.94466622 5.48795621 -12.91912331 3.17998207 -9.5 1.1875 C-8.7678125 0.74792969 -8.035625 0.30835938 -7.28125 -0.14453125 C-4.34214489 -1.24669567 -3.01849078 -0.8323889 0 0 Z " fill="#4AE3A3" transform="translate(288,160)"/>
<path d="M0 0 C1.98 0.495 1.98 0.495 4 1 C4 29.05 4 57.1 4 86 C2.02 86.495 2.02 86.495 0 87 C-1.77470247 85.22529753 -1.12620861 82.85610047 -1.13552856 80.49247742 C-1.13350433 79.70283096 -1.1314801 78.91318451 -1.12939453 78.09960938 C-1.13114685 77.27201614 -1.13289917 76.44442291 -1.13470459 75.5917511 C-1.13912393 72.84239638 -1.13618483 70.09310543 -1.1328125 67.34375 C-1.13348552 65.44185371 -1.13445552 63.53995751 -1.13571167 61.63806152 C-1.13718875 57.64655745 -1.13503375 53.65507571 -1.13037109 49.66357422 C-1.1246738 44.53509493 -1.12795275 39.40666798 -1.13394356 34.27819061 C-1.13754889 30.34925946 -1.13641072 26.42034082 -1.13381577 22.4914093 C-1.13314642 20.59987888 -1.13397519 18.70834735 -1.13629532 16.81681824 C-1.13882138 14.17797823 -1.13498191 11.53922419 -1.12939453 8.90039062 C-1.13141876 8.11074417 -1.13344299 7.32109772 -1.13552856 6.50752258 C-1.11426251 1.11426251 -1.11426251 1.11426251 0 0 Z " fill="#3D454A" transform="translate(337,203)"/>
<path d="M0 0 C1.98 0 3.96 0 6 0 C6 1.98 6 3.96 6 6 C5.01 6 4.02 6 3 6 C3.32498978 6.68775009 3.64997955 7.37550018 3.9848175 8.08409119 C5.15618374 11.44860656 5.24726706 14.09426272 5.24291992 17.65454102 C5.24481827 18.30233521 5.24671661 18.95012939 5.24867249 19.61755371 C5.25235973 21.7464633 5.24170597 23.87502728 5.23046875 26.00390625 C5.2292757 27.4893337 5.22882405 28.97476191 5.2290802 30.46018982 C5.2275189 33.56782784 5.21925586 36.67535008 5.20581055 39.78295898 C5.18880647 43.76313414 5.18499688 47.7431824 5.18575573 51.72338963 C5.18548363 54.78860176 5.17999628 57.85378625 5.17275429 60.91898918 C5.16957624 62.38658375 5.16760223 63.85418143 5.16686058 65.32177925 C5.16468868 67.37285814 5.15592657 69.42380342 5.14526367 71.47485352 C5.14145187 72.64113785 5.13764008 73.80742218 5.13371277 75.00904846 C5.02031313 77.54562624 4.63854555 79.57013881 4 82 C4.38567131 84.68149993 4.38567131 84.68149993 5 87 C3.68 87 2.36 87 1 87 C0.01745109 76.82378465 -0.13231795 66.75215492 -0.09765625 56.54296875 C-0.09578615 54.902451 -0.09436505 53.26193269 -0.09336853 51.62141418 C-0.08958992 47.34885049 -0.07980065 43.07632197 -0.06866455 38.80377197 C-0.05834908 34.42582678 -0.05384942 30.04787578 -0.04882812 25.66992188 C-0.03817316 17.11326529 -0.02115427 8.55663705 0 0 Z " fill="#3D4449" transform="translate(162,103)"/>
<path d="M0 0 C-1.43578933 3.61602626 -2.99442805 4.90235 -6.3828125 6.7421875 C-7.2917627 7.24443848 -8.20071289 7.74668945 -9.13720703 8.26416016 C-10.12317871 8.7957373 -11.10915039 9.32731445 -12.125 9.875 C-14.20925427 11.02437324 -16.29255614 12.1754749 -18.375 13.328125 C-19.45910156 13.92560547 -20.54320312 14.52308594 -21.66015625 15.13867188 C-27.19395705 18.22271408 -32.65928409 21.42229406 -38.125 24.625 C-39.1370752 25.21651855 -40.14915039 25.80803711 -41.19189453 26.41748047 C-46.46890234 29.49143715 -46.46890234 29.49143715 -51.66357422 32.70068359 C-54 34 -54 34 -56.3125 33.6875 C-56.869375 33.460625 -57.42625 33.23375 -58 33 C-55.33859868 30.16041369 -52.82741435 28.13148439 -49.421875 26.2578125 C-48.51920898 25.75548096 -47.61654297 25.25314941 -46.68652344 24.7355957 C-45.7174707 24.20409912 -44.74841797 23.67260254 -43.75 23.125 C-41.68666129 21.97676627 -39.62419054 20.82697171 -37.5625 19.67578125 C-36.49128906 19.07846191 -35.42007813 18.48114258 -34.31640625 17.86572266 C-28.76014204 14.73991501 -23.25400694 11.5291819 -17.75 8.3125 C-16.72100586 7.71260254 -15.69201172 7.11270508 -14.63183594 6.49462891 C-3.5222574 0 -3.5222574 0 0 0 Z " fill="#ECF6FC" transform="translate(231,151)"/>
<path d="M0 0 C0 0.66 0 1.32 0 2 C-0.7120459 2.40613525 -1.4240918 2.81227051 -2.15771484 3.23071289 C-4.31827254 4.46336755 -6.47856549 5.69648628 -8.63867188 6.92993164 C-11.14671219 8.36200143 -13.6559941 9.79186494 -16.16601562 11.22045898 C-22.64280684 14.91102705 -29.0966465 18.63394457 -35.5078125 22.4375 C-36.69594045 23.13825466 -37.88425076 23.83870023 -39.07275391 24.53881836 C-41.32840406 25.87070924 -43.57828177 27.21243303 -45.82177734 28.56469727 C-46.83965332 29.16338623 -47.8575293 29.7620752 -48.90625 30.37890625 C-49.79634766 30.9107251 -50.68644531 31.44254395 -51.60351562 31.99047852 C-54.28639462 33.12064403 -55.33661217 33.05135765 -58 32 C-57.03066528 31.4440918 -57.03066528 31.4440918 -56.04174805 30.87695312 C-41.78517442 22.69385264 -27.58399604 14.42702911 -13.4597168 6.01757812 C-12.37988525 5.37498047 -11.30005371 4.73238281 -10.1875 4.0703125 C-9.23230469 3.50070801 -8.27710938 2.93110352 -7.29296875 2.34423828 C-3.29422448 0 -3.29422448 0 0 0 Z " fill="#E9F5FA" transform="translate(317,201)"/>
<path d="M0 0 C0.99 0.33 1.98 0.66 3 1 C-0.44876105 3.88402396 -3.92416457 6.22994714 -7.83984375 8.43359375 C-8.97550781 9.0769165 -10.11117187 9.72023926 -11.28125 10.38305664 C-12.4998892 11.06806824 -13.71864155 11.75287858 -14.9375 12.4375 C-17.45862359 13.85917478 -19.97793949 15.2840103 -22.49609375 16.7109375 C-23.12740204 17.06843582 -23.75871033 17.42593414 -24.40914917 17.79426575 C-28.51083327 20.12650738 -32.56533262 22.52553018 -36.59765625 24.9765625 C-37.59869385 25.58314697 -38.59973145 26.18973145 -39.63110352 26.81469727 C-41.50889787 27.95869605 -43.38077217 29.11248337 -45.24584961 30.27709961 C-46.08253174 30.7850708 -46.91921387 31.29304199 -47.78125 31.81640625 C-48.50376953 32.26443604 -49.22628906 32.71246582 -49.97070312 33.17407227 C-52.41672057 34.16960607 -53.56122946 33.8939644 -56 33 C-43.00114084 25.27217626 -29.95625626 17.6319283 -16.83447266 10.11499023 C-15.7985498 9.52016846 -14.76262695 8.92534668 -13.6953125 8.3125 C-12.71723633 7.75175781 -11.73916016 7.19101563 -10.73144531 6.61328125 C-8.24389166 5.14405042 -5.83856437 3.59348028 -3.4296875 2 C-2.29789062 1.34 -1.16609375 0.68 0 0 Z " fill="#E9F5FA" transform="translate(261,169)"/>
<path d="M0 0 C-1.19881285 3.59643855 -1.99599453 3.88459701 -5.18359375 5.734375 C-6.02857422 6.22550781 -6.87355469 6.71664063 -7.74414062 7.22265625 C-8.63294922 7.72667969 -9.52175781 8.23070312 -10.4375 8.75 C-11.32244141 9.26949219 -12.20738281 9.78898437 -13.11914062 10.32421875 C-18.03485338 13.1471033 -18.03485338 13.1471033 -20 14 C-20.66 13.67 -21.32 13.34 -22 13 C-18.51363477 9.0207978 -14.44848564 6.7617354 -9.875 4.25 C-9.14667969 3.83878906 -8.41835938 3.42757812 -7.66796875 3.00390625 C-2.2689213 0 -2.2689213 0 0 0 Z " fill="#E9F5FA" transform="translate(336,252)"/>
<path d="M0 0 C1.5 1.25 1.5 1.25 3 3 C3 4.32 3 5.64 3 7 C1.68 7 0.36 7 -1 7 C-0.67 4.69 -0.34 2.38 0 0 Z " fill="#474E53" transform="translate(164,183)"/>
</svg>
